<?xml version="1.0" encoding="UTF-8"?>
<svg version="1.1" xmlns="http://www.w3.org/2000/svg" width="1536" height="1024">
<path d="M0 0 C506.88 0 1013.76 0 1536 0 C1536 337.92 1536 675.84 1536 1024 C1029.12 1024 522.24 1024 0 1024 C0 686.08 0 348.16 0 0 Z " fill="#FCFCFB" transform="translate(0,0)"/>
<path d="M0 0 C3.5027193 2.84173067 6.78192643 5.84102294 10 9 C10.69996094 9.67546875 11.39992188 10.3509375 12.12109375 11.046875 C26.23321991 25.6816725 31.29310829 45.16633938 31 65 C32.175625 65.20625 33.35125 65.4125 34.5625 65.625 C54.5277427 70.16967848 71.61819052 81.69000588 82.8125 98.9375 C97.55012989 122.53927354 101.78255816 150.86837078 95.96875 178.015625 C92.10781725 194.4325663 85.39499456 209.45936865 74 222 C73.18917969 222.90363281 72.37835937 223.80726563 71.54296875 224.73828125 C56.51421528 240.64719598 34.119884 252.05200497 12 253 C10.39125 253.07734375 10.39125 253.07734375 8.75 253.15625 C-3.32170674 253.45804267 -16.57927694 252.66926276 -27 246 C-29 243 -29 243 -28.9375 239.5625 C-28 236 -28 236 -25.9375 233.5 C-21.47650893 231.22204712 -17.7017823 232.25714743 -13.08203125 233.52734375 C5.71904269 238.50944651 27.55793428 234.019856 44.3125 224.75 C50.15993993 221.12678789 55.13665106 216.84640347 60 212 C60.63679687 211.38640625 61.27359375 210.7728125 61.9296875 210.140625 C78.42618175 192.98427098 79.56305961 168.00132075 79.2734375 145.6328125 C79.11222991 137.54295332 78.16408853 130.52641178 75 123 C74.50242187 121.79859375 74.00484375 120.5971875 73.4921875 119.359375 C67.13441765 105.03024581 56.23508462 94.16816084 41.8125 88.05859375 C33.08507124 84.77368654 24.2166898 83.24549862 15 82 C13.99412906 78.49630578 14.00030209 75.34800751 14.11694336 71.70556641 C14.62577328 53.99687661 10.52063006 38.42312977 -1.3125 24.6875 C-15.04885521 10.39520461 -32.26226349 2.26965337 -52.13110352 1.52685547 C-71.01425146 1.31828571 -89.3847842 7.6968907 -103.04663086 20.93847656 C-104.37944967 22.27752458 -105.6904693 23.63816854 -107 25 C-107.66386719 25.65613281 -108.32773437 26.31226563 -109.01171875 26.98828125 C-121.53634605 40.13210361 -126.74752542 57.13260256 -127.5625 74.875 C-127.62727539 76.19371094 -127.62727539 76.19371094 -127.69335938 77.5390625 C-127.79869339 79.69255797 -127.89977649 81.84626064 -128 84 C-129.08796875 84.47308594 -130.1759375 84.94617188 -131.296875 85.43359375 C-150.45417131 93.96690085 -164.84199992 105.0276941 -173 125 C-180.01858078 144.12459436 -178.3686842 164.56564841 -170 183 C-166.15684656 190.69747883 -161.01025069 196.88318459 -155 203 C-154.18789063 203.83144531 -154.18789063 203.83144531 -153.359375 204.6796875 C-141.61426069 215.65365794 -123.72662431 223.01000069 -107.74609375 223.17578125 C-106.56208984 223.19962891 -105.37808594 223.22347656 -104.15820312 223.24804688 C-101.67400429 223.29108024 -99.18957312 223.32229534 -96.70507812 223.34179688 C-94.93100586 223.38336914 -94.93100586 223.38336914 -93.12109375 223.42578125 C-92.0427124 223.44036377 -90.96433105 223.45494629 -89.85327148 223.4699707 C-86.33142391 224.124196 -85.14175513 225.1710101 -83 228 C-82.4375 231.5 -82.4375 231.5 -83 235 C-85.71969219 238.59387897 -88.87499632 239.38690402 -93.125 240.25 C-116.69439088 243.43505282 -138.36018995 238.87691174 -157.9375 225.0625 C-159.64275093 223.7307557 -161.33094605 222.37683788 -163 221 C-163.83789062 220.33613281 -164.67578125 219.67226563 -165.5390625 218.98828125 C-180.94278815 206.08825713 -191.25698336 186.85189146 -194 167 C-195.18375703 152.1368056 -195.41023621 137.06325374 -190 123 C-189.55828314 121.73363428 -189.11824112 120.4666834 -188.6796875 119.19921875 C-181.43949285 99.05950743 -166.4262529 81.4101482 -147 72 C-146.01 72 -145.02 72 -144 72 C-143.96132813 70.74509766 -143.96132813 70.74509766 -143.921875 69.46484375 C-142.92436704 48.99325989 -135.99231998 31.07045519 -122 16 C-121.24074219 15.16082031 -120.48148437 14.32164062 -119.69921875 13.45703125 C-88.65476579 -19.31493627 -37.39730684 -27.34781029 0 0 Z " fill="#0E0E0E" transform="translate(531,300)"/>
<path d="M0 0 C7.26 0 14.52 0 22 0 C24.33000839 8.66653278 26.65972104 17.33314491 28.98891354 25.999897 C30.07046767 30.02423239 31.15215124 34.04853289 32.23413086 38.07275391 C33.27834154 41.95651942 34.3222119 45.84037625 35.36584663 49.72429657 C35.76402232 51.20588181 36.1623205 52.68743414 36.56074333 54.16895294 C37.11886376 56.24438416 37.67654808 58.3199321 38.23413086 60.39550781 C38.55167831 61.57687317 38.86922577 62.75823853 39.19639587 63.97540283 C39.81742711 66.31283399 40.42344057 68.65131343 41 71 C43.68217921 63.27635125 45.86607806 55.44543888 48.01171875 47.55859375 C48.38835748 46.181342 48.76521776 44.80415082 49.14228821 43.42701721 C50.12591123 39.83233526 51.10655629 36.23684772 52.08654785 32.64117432 C53.09037911 28.96015386 54.09707374 25.27991673 55.10351562 21.59960938 C57.07178724 14.40049545 59.0366425 7.200456 61 0 C67.93 0 74.86 0 82 0 C83.84393187 4.91715164 85.50794604 9.48413129 86.88525391 14.49194336 C87.2221524 15.70937729 87.5590509 16.92681122 87.90615845 18.18113708 C88.16791304 19.13702634 88.16791304 19.13702634 88.4349556 20.11222649 C88.98651944 22.12620042 89.54266752 24.13886048 90.09994507 26.15126038 C91.27901879 30.41222651 92.45232893 34.67476809 93.625 38.9375 C94.99154841 43.90378771 96.36045441 48.86940468 97.73484421 53.83352852 C98.28323991 55.81876551 98.82756708 57.80508921 99.37173462 59.79148865 C99.7023288 60.98685745 100.03292297 62.18222626 100.37353516 63.41381836 C100.6642691 64.47112656 100.95500305 65.52843475 101.25454712 66.61778259 C101.77621935 68.9307743 101.77621935 68.9307743 103 70 C103.22328476 69.13778336 103.44656952 68.27556671 103.67662048 67.38722229 C105.77727459 59.27803957 107.88122246 51.16972031 109.98891354 43.06236362 C111.07248651 38.89385533 112.15476425 34.72501954 113.23413086 30.55541992 C114.27502361 26.53463827 115.31925456 22.51473748 116.36584663 18.49543571 C116.76536672 16.95869035 117.16366471 15.42162675 117.56074333 13.88424873 C118.11534697 11.73782408 118.67421052 9.59255262 119.23413086 7.44750977 C119.71045204 5.6121743 119.71045204 5.6121743 120.19639587 3.73976135 C121 1 121 1 122 0 C123.4887186 -0.08669432 124.981445 -0.10703494 126.47265625 -0.09765625 C127.37177734 -0.09443359 128.27089844 -0.09121094 129.19726562 -0.08789062 C130.61555664 -0.07532227 130.61555664 -0.07532227 132.0625 -0.0625 C133.4865918 -0.05573242 133.4865918 -0.05573242 134.93945312 -0.04882812 C137.29303065 -0.0370011 139.64648477 -0.02052025 142 0 C141.31823091 5.74481446 140.00160064 11.17544004 138.48828125 16.75390625 C138.2375737 17.69064682 137.98686615 18.62738739 137.7285614 19.59251404 C136.92700908 22.58354492 136.1198077 25.57301805 135.3125 28.5625 C134.78935077 30.51227249 134.2665614 32.46214157 133.74414062 34.41210938 C128.99161335 52.12920653 124.19424682 69.83534351 119.25 87.5 C118.95996094 88.54285156 118.66992188 89.58570313 118.37109375 90.66015625 C117.94763672 92.17416016 117.94763672 92.17416016 117.515625 93.71875 C117.14872559 95.03262695 117.14872559 95.03262695 116.77441406 96.37304688 C115.92026646 99.27047064 114.95522943 102.13431171 114 105 C106.74 105 99.48 105 92 105 C88.58194257 94.18132096 85.2945424 83.33562926 82.14282227 72.43652344 C81.43777796 70.0009602 80.72779711 67.56687111 80.01757812 65.1328125 C77.11560451 55.14044197 74.44231348 45.11454349 72 35 C67.4472049 48.97506691 63.60509775 63.13238427 59.75 77.3125 C58.79609118 80.81217102 57.8413551 84.31161405 56.88580322 87.81083679 C56.29594095 89.97183791 55.70715285 92.13313259 55.11956787 94.29475403 C54.72345306 95.74853706 54.72345306 95.74853706 54.31933594 97.23168945 C54.08792908 98.08277786 53.85652222 98.93386627 53.61810303 99.81074524 C53.12578803 101.55447228 52.57297103 103.2810869 52 105 C44.41 105 36.82 105 29 105 C28.47680176 103.1233667 27.95360352 101.2467334 27.41455078 99.31323242 C25.20672801 91.39554187 22.99748677 83.47824768 20.78754044 75.5611496 C20.34734941 73.9840998 19.90720171 72.40703791 19.46709824 70.82996368 C11.13482216 40.97149052 11.13482216 40.97149052 2.59228516 11.17260742 C2.23827637 9.94775635 1.88426758 8.72290527 1.51953125 7.4609375 C1.22151611 6.43790527 0.92350098 5.41487305 0.61645508 4.36083984 C0 2 0 2 0 0 Z " fill="#0E0F0E" transform="translate(961,516)"/>
<path d="M0 0 C6.93 0 13.86 0 21 0 C22.7309881 5.19296431 24.39813702 10.21004085 25.80932617 15.46606445 C26.12943161 16.65371902 26.44953705 17.8413736 26.77934265 19.0650177 C27.11383926 20.31844467 27.44833588 21.57187164 27.79296875 22.86328125 C28.14730699 24.18607667 28.50174503 25.50884536 28.85627747 26.83158875 C29.59354663 29.58520887 30.32860468 32.33940799 31.06225586 35.09399414 C32.00180604 38.62034982 32.94850064 42.14474447 33.89701366 45.66869831 C34.62877538 48.39155021 35.35598533 51.1156023 36.08190346 53.84001732 C36.59744131 55.7707183 37.11743438 57.70022786 37.63749695 59.62971497 C38.10347038 61.38755562 38.10347038 61.38755562 38.57885742 63.1809082 C38.85404709 64.21077347 39.12923676 65.24063873 39.4127655 66.30171204 C40 69 40 69 40 73 C40.66 73 41.32 73 42 73 C42.08701172 71.97366455 42.17402344 70.9473291 42.26367188 69.88989258 C43.08641117 63.36132046 45.01935011 57.08583578 46.78125 50.76171875 C47.15903276 49.39041181 47.53634421 48.01897494 47.91320801 46.64741516 C48.90080651 43.05845637 49.89519498 39.47141302 50.89093018 35.88470459 C51.7039376 32.95180007 52.51214734 30.01758389 53.32010651 27.08328533 C54.98902669 21.02249222 56.66167843 14.96272779 58.34179688 8.9050293 C58.63856323 7.83439743 58.93532959 6.76376556 59.24108887 5.66069031 C59.78305772 3.76058473 60.37516951 1.87449148 61 0 C67.6 0 74.2 0 81 0 C87.78210308 23.63562925 94.53344324 47.27574731 101 71 C105.54001984 55.06592809 109.59313567 39.01551177 113.64501953 22.95166016 C114.50626685 19.5402137 115.37022111 16.12946114 116.234375 12.71875 C116.49788757 11.66997681 116.76140015 10.62120361 117.03289795 9.54064941 C117.27695374 8.57784058 117.52100952 7.61503174 117.77246094 6.62304688 C118.09292389 5.35213196 118.09292389 5.35213196 118.41986084 4.05554199 C119 2 119 2 120 0 C126.93 0 133.86 0 141 0 C137.67517787 14.68463108 133.74579005 29.17294313 129.75 43.6875 C128.40739449 48.58163166 127.06692408 53.47634714 125.7265625 58.37109375 C125.401185 59.5582901 125.0758075 60.74548645 124.74057007 61.96865845 C121.83296647 72.58641606 118.98233347 83.21846246 116.17089844 93.86206055 C115.89020508 94.92336182 115.60951172 95.98466309 115.3203125 97.078125 C115.08586426 97.96918945 114.85141602 98.86025391 114.60986328 99.77832031 C114.12771387 101.53474933 113.57597838 103.27206486 113 105 C105.41 105 97.82 105 90 105 C87.93684182 97.85079765 85.87379814 90.70156245 83.81103516 83.55224609 C83.11090524 81.12579493 82.41071129 78.69936224 81.71044922 76.27294922 C81.03012152 73.91557978 80.34990365 71.55817865 79.6697998 69.20074463 C79.00847681 66.90876498 78.34677889 64.61689348 77.68469238 62.32513428 C76.32955892 57.63080673 74.97686332 52.93616534 73.65820312 48.23144531 C73.30177734 46.96139648 72.94535156 45.69134766 72.578125 44.3828125 C72.2884082 43.33754395 71.99869141 42.29227539 71.70019531 41.21533203 C71.20277555 39.04906617 71.20277555 39.04906617 70 38 C69.67314209 39.17691406 69.34628418 40.35382812 69.00952148 41.56640625 C63.12477009 62.74669672 57.22587496 83.91692343 51 105 C43.74 105 36.48 105 29 105 C23.29224012 86.22129757 18.0118391 67.33676517 12.80908203 48.4128418 C10.3711291 39.54983372 7.932456 30.68823575 5.38671875 21.85546875 C5.19389313 21.18612808 5.0010675 20.51678741 4.80239868 19.8271637 C3.93613036 16.82622847 3.06341318 13.82731418 2.18359375 10.83032227 C1.8896875 9.81897217 1.59578125 8.80762207 1.29296875 7.765625 C1.0405542 6.90743164 0.78813965 6.04923828 0.52807617 5.16503906 C0 3 0 3 0 0 Z " fill="#0E0F0E" transform="translate(645,516)"/>
<path d="M0 0 C0.0154612 1.21954628 0.0154612 1.21954628 0.03123474 2.46372986 C0.1321015 10.40003909 0.23452166 18.33632636 0.33820629 26.27259922 C0.39371497 30.53147109 0.44838755 34.79035093 0.50134277 39.04925537 C0.7139398 56.14063796 0.92963606 73.23062036 1.34539986 90.31846046 C1.42501201 93.61921403 1.49913407 96.92009358 1.57446289 100.22094727 C1.68547648 105.06192016 1.81675842 109.90179228 1.95874023 114.74194336 C2.00974763 116.92429795 2.0600052 119.10667025 2.109375 121.2890625 C2.14356033 122.25140305 2.17774567 123.21374359 2.21296692 124.20524597 C2.3282522 130.29678139 1.48471178 135.40206911 -1 141 C-1.33 141.33 -1.66 141.66 -2 142 C-2.09863677 143.42595444 -2.12798821 144.85677166 -2.12939453 146.28613281 C-2.13250641 147.21262634 -2.13561829 148.13911987 -2.13882446 149.09368896 C-2.13684052 150.11980286 -2.13485657 151.14591675 -2.1328125 152.203125 C-2.13413177 153.2793512 -2.13545105 154.35557739 -2.1368103 155.4644165 C-2.13875594 159.05963851 -2.13230495 162.65478559 -2.125 166.25 C-2.12411377 167.48306885 -2.12322754 168.7161377 -2.12231445 169.98657227 C-2.10232819 193.89475255 -1.75012058 217.79250048 -1.28469849 241.69586182 C-1.22015779 245.20471334 -1.16769059 248.71357802 -1.1171875 252.22265625 C-1.04998049 256.79602751 -0.9220505 261.3627339 -0.7578125 265.93359375 C-0.70245927 268.11196235 -0.64774211 270.29034724 -0.59375 272.46875 C-0.54536987 273.46201294 -0.49698975 274.45527588 -0.44714355 275.4786377 C-0.32705748 282.08047816 -0.32705748 282.08047816 -2.27839661 284.74682617 C-4.55231943 286.7268951 -6.45263814 287.9161934 -9.44921875 288.375 C-10.18785156 288.25125 -10.92648437 288.1275 -11.6875 288 C-12.43386719 287.896875 -13.18023437 287.79375 -13.94921875 287.6875 C-16.36709825 286.87693468 -17.42024996 285.98542603 -19 284 C-19.89740609 281.30778172 -20.1433701 279.66198154 -20.19618225 276.89045715 C-20.21438522 276.05435913 -20.2325882 275.21826111 -20.25134277 274.35682678 C-20.26644897 273.44219162 -20.28155518 272.52755646 -20.29711914 271.58520508 C-20.31677231 270.61870026 -20.33642548 269.65219543 -20.35667419 268.65640259 C-20.42077334 265.44418351 -20.47806469 262.23188195 -20.53515625 259.01953125 C-20.57822295 256.77202198 -20.62163966 254.52451938 -20.66539001 252.27702332 C-20.7564822 247.54662956 -20.84440811 242.81619102 -20.92993164 238.08569336 C-21.03838695 232.09180358 -21.15282064 226.0980484 -21.26950932 220.10431385 C-21.35975831 215.44790594 -21.44754806 210.79145413 -21.53457451 206.13498497 C-21.57589863 203.93031496 -21.61774543 201.72565467 -21.66017342 199.52100563 C-21.94956781 184.34572808 -22.05353939 169.17798885 -22 154 C-22.74588882 154.21153214 -23.49177765 154.42306427 -24.26026917 154.64100647 C-25.73547279 155.05279396 -25.73547279 155.05279396 -27.24047852 155.47290039 C-28.69962425 155.88301109 -28.69962425 155.88301109 -30.18824768 156.30140686 C-41.41916575 159.09178148 -53.55705902 157.39810149 -63.4921875 151.52734375 C-73.81909093 144.17333676 -78.69152218 134.28390016 -81 122 C-81.25772866 118.62840215 -81.27943496 115.36874371 -81 112 C-75.98391475 110.9823597 -71.21391694 110.88143566 -66.125 110.9375 C-65.34125 110.94201172 -64.5575 110.94652344 -63.75 110.95117188 C-61.83329986 110.96285907 -59.91663952 110.98079092 -58 111 C-57.96261719 111.85722656 -57.92523438 112.71445312 -57.88671875 113.59765625 C-57.43771669 124.59916361 -57.43771669 124.59916361 -51.4375 133.375 C-45.38727454 137.40848364 -38.04334111 136.51553634 -31 136 C-26.7359091 134.67688731 -24.50134564 132.75201846 -22 129 C-21.70399621 126.55586865 -21.70399621 126.55586865 -21.75949097 123.77986145 C-21.75674164 122.69872574 -21.75399231 121.61759003 -21.75115967 120.50369263 C-21.75835022 119.31758392 -21.76554077 118.13147522 -21.77294922 116.90942383 C-21.77265717 115.66052872 -21.77236511 114.41163361 -21.77206421 113.12489319 C-21.77321976 109.69946595 -21.78325815 106.27427905 -21.79721212 102.84889436 C-21.80970487 99.26944323 -21.81088883 95.68998898 -21.81326294 92.11051941 C-21.819482 85.33197224 -21.83589856 78.5534895 -21.85596192 71.77497071 C-21.87830769 64.05800746 -21.88931102 56.34104114 -21.89935279 48.6240536 C-21.92026443 32.74933174 -21.95544866 16.87467417 -22 1 C-18.70837401 0.83252349 -15.41669287 0.66615639 -12.125 0.5 C-11.18785156 0.45230469 -10.25070312 0.40460938 -9.28515625 0.35546875 C-8.38925781 0.31035156 -7.49335938 0.26523437 -6.5703125 0.21875 C-5.74289551 0.17685547 -4.91547852 0.13496094 -4.06298828 0.09179688 C-2.70965236 0.03157743 -1.35467505 0 0 0 Z " fill="#0F0F0F" transform="translate(491,347)"/>
<path d="M0 0 C9.43163124 7.93075683 16.96398324 17.37249937 19.25 29.75 C15.85641656 30.59268087 12.45980915 31.42247901 9.0625 32.25 C8.10279297 32.48847656 7.14308594 32.72695313 6.15429688 32.97265625 C5.22294922 33.19824219 4.29160156 33.42382812 3.33203125 33.65625 C2.47843018 33.86572266 1.6248291 34.07519531 0.74536133 34.29101562 C-1.80946307 34.76093734 -4.15844759 34.83117627 -6.75 34.75 C-7.27787109 33.55503906 -7.27787109 33.55503906 -7.81640625 32.3359375 C-12.07433089 23.19751961 -16.28873235 17.6579149 -25.75 13.75 C-34.48049033 11.08235018 -42.81460064 12.60320277 -50.75 16.75 C-58.22261639 21.34853316 -61.43695998 29.38213218 -63.8984375 37.5703125 C-67.15321289 51.59152472 -65.47083797 68.64423592 -57.875 80.9375 C-53.84284213 86.32721856 -49.17348875 88.95810479 -42.75 90.75 C-40.07527035 90.96145193 -37.54446595 91.08428512 -34.875 91.0625 C-34.16609619 91.05758545 -33.45719238 91.0526709 -32.72680664 91.04760742 C-27.28842792 90.92555841 -23.5399711 90.27562112 -18.75 87.75 C-18.13898438 87.43289063 -17.52796875 87.11578125 -16.8984375 86.7890625 C-10.538223 82.9729338 -8.02084329 76.56252986 -5.75 69.75 C13.10106383 69.36702128 13.10106383 69.36702128 20.25 71.75 C18.4394783 84.4506746 12.63969765 95.93697282 2.4375 104 C-12.46289481 114.41580996 -29.35865746 116.58254245 -47.09375 114.32421875 C-61.90292243 111.07973608 -74.7606345 103.20873992 -83.15234375 90.53515625 C-92.91665376 73.51326619 -95.52628307 52.33607401 -90.921875 33.33203125 C-85.26974009 16.05533887 -75.97326333 3.74678 -59.9375 -5 C-41.0908198 -13.89492851 -16.92757757 -12.55729076 0 0 Z " fill="#0F0F0F" transform="translate(844.75,356.25)"/>
<path d="M0 0 C6.6 0 13.2 0 20 0 C20 13.53 20 27.06 20 41 C22.475 38.03 22.475 38.03 25 35 C31.82968688 30.42559913 38.90076647 28.78568776 47 30 C56.43646794 32.19452743 63.35441686 36.79543426 68.8125 44.8125 C75.13807655 56.05322049 75.87415917 69.56091618 72.8125 82 C69.48126172 92.14722812 64.27591199 99.37692586 55.16796875 105.1640625 C48.02912144 108.49241397 38.307231 108.38978516 30.94921875 106.015625 C26.68790098 103.97019247 23.02296475 101.71000219 20 98 C19.67 100.64 19.34 103.28 19 106 C12.73 106 6.46 106 0 106 C0 71.02 0 36.04 0 0 Z " fill="#0D0E0D" transform="translate(866,515)"/>
<path d="M0 0 C9.52098589 5.83385711 14.52445424 13.57336272 18 24 C19.16942017 37.83303086 18.88766775 51.04763318 9.75390625 62.21875 C1.56776531 70.53251452 -8.07397747 73.25963401 -19.4375 73.4375 C-29.74424646 73.35528928 -37.97366626 70.73023093 -45.9921875 64.0625 C-54.83476712 54.97907191 -57.40371219 43.81548617 -57.27734375 31.515625 C-56.53725965 22.13427729 -53.49173568 13.85326091 -47 7 C-46.49855469 6.45859375 -45.99710938 5.9171875 -45.48046875 5.359375 C-33.5749897 -6.11159751 -14.34642198 -7.68304251 0 0 Z " fill="#0E0F0E" transform="translate(1158,549)"/>
<path d="M0 0 C8.25 0 16.5 0 25 0 C25.06800084 11.26651944 25.12294547 22.53290071 25.15543652 33.79957962 C25.17103708 39.0321546 25.19217203 44.26458088 25.22631836 49.49707031 C25.25911293 54.55454707 25.27689511 59.61188153 25.28463173 64.66945648 C25.29013937 66.59099311 25.30089363 68.51252269 25.31719017 70.43399811 C25.44016977 85.5465698 25.05686334 100.98539939 14.30078125 112.87890625 C2.81949174 123.17336584 -9.60504029 123.94497394 -24.37744141 123.23828125 C-34.92103854 122.2803078 -44.21857123 116.67497609 -50.96484375 108.66796875 C-56.34044491 101.08757557 -58.19119545 92.95414426 -60 84 C-56.79279138 83.4926043 -53.58407837 82.995421 -50.375 82.5 C-49.47136719 82.35691406 -48.56773437 82.21382813 -47.63671875 82.06640625 C-43.04560134 81.36265833 -38.66168185 80.81415222 -34 81 C-33.65388672 82.08667969 -33.65388672 82.08667969 -33.30078125 83.1953125 C-30.1756192 92.54654743 -30.1756192 92.54654743 -23.11328125 99.12890625 C-18.89731694 100.86672518 -14.31745694 100.75588928 -10 99.34765625 C-5.44177779 97.05872139 -2.8969927 93.71473321 -1 89 C-0.45723992 86.00122084 -0.43514062 83.0774079 -0.45410156 80.03540039 C-0.44376389 79.16631042 -0.43342621 78.29722046 -0.42277527 77.40179443 C-0.39345098 74.55022359 -0.3918503 71.69936573 -0.390625 68.84765625 C-0.37563635 66.86224523 -0.35890776 64.87684664 -0.34051514 62.89146423 C-0.29690646 57.68174655 -0.27685683 52.47219706 -0.26177979 47.2623291 C-0.24218539 41.93975913 -0.20021795 36.61737018 -0.16015625 31.29492188 C-0.08492407 20.86330653 -0.03665944 10.43182229 0 0 Z " fill="#0E0F0E" transform="translate(713,348)"/>
<path d="M0 0 C4.56375838 3.48363646 7.88115937 8.25432171 9.83203125 13.6484375 C9.9609375 16.9296875 9.9609375 16.9296875 9.83203125 19.6484375 C6.4160111 19.82290684 3.00113488 19.92933373 -0.41796875 20.0234375 C-1.87009766 20.09884766 -1.87009766 20.09884766 -3.3515625 20.17578125 C-6.07902726 20.23221156 -8.4981837 20.21727727 -11.16796875 19.6484375 C-13.65234375 16.75 -13.65234375 16.75 -15.16796875 13.6484375 C-18.61472284 11.35060144 -20.10124987 11.35088867 -24.16796875 11.3359375 C-25.21984375 11.31917969 -26.27171875 11.30242187 -27.35546875 11.28515625 C-30.14191323 11.43618564 -30.14191323 11.43618564 -32.03125 12.875 C-33.50373759 15.17228304 -33.47315435 16.62916863 -33.35546875 19.3359375 C-33.29296875 20.7734375 -33.23046875 22.2109375 -33.16796875 23.6484375 C-28.55105282 25.23341136 -23.92666717 26.74406229 -19.23046875 28.078125 C-18.39773438 28.31660156 -17.565 28.55507813 -16.70703125 28.80078125 C-15.0163644 29.28197104 -13.32362993 29.75595542 -11.62890625 30.22265625 C-1.43089599 33.17471185 6.10670639 37.39750797 11.96484375 46.38671875 C14.36066421 52.63527752 13.76309749 61.29226851 11.9921875 67.67578125 C8.35748094 75.61828819 2.59265085 80.72008921 -5.41796875 84.0234375 C-16.95947177 88.25042109 -32.62351474 89.04550364 -43.94921875 83.90234375 C-51.45613223 79.65988032 -55.99857709 75.29232222 -60.16796875 67.6484375 C-60.82796875 64.0184375 -61.48796875 60.3884375 -62.16796875 56.6484375 C-49.79296875 56.1534375 -49.79296875 56.1534375 -37.16796875 55.6484375 C-36.50796875 58.6184375 -35.84796875 61.5884375 -35.16796875 64.6484375 C-30.72846063 68.36312797 -27.05928878 69.25686033 -21.31640625 68.97265625 C-17.28205551 68.36383605 -14.28066402 67.0514011 -11.73046875 63.8359375 C-10.93687594 60.74974323 -11.26143414 58.69180371 -12.16796875 55.6484375 C-15.03261923 53.02230507 -17.73583224 51.99297086 -21.45703125 51 C-22.99423828 50.57460938 -22.99423828 50.57460938 -24.5625 50.140625 C-26.69232797 49.56889367 -28.82252868 48.99854882 -30.953125 48.4296875 C-40.78895115 45.70365329 -50.48978194 42.70284349 -56.16796875 33.6484375 C-59.58289177 26.92457183 -59.28438643 17.3119544 -57.55078125 10.0703125 C-54.46106118 3.125278 -48.2270589 -1.74260929 -41.41796875 -4.7890625 C-27.706113 -9.18143969 -12.16477578 -7.58380616 0 0 Z " fill="#0F0F0F" transform="translate(961.16796875,384.3515625)"/>
<path d="M0 0 C6.6 0 13.2 0 20 0 C20.33 19.47 20.66 38.94 21 59 C25.455 54.05 25.455 54.05 30 49 C32.83273898 45.91389803 35.67458423 42.83656048 38.51953125 39.76171875 C41.06536116 37.145312 41.06536116 37.145312 42.52734375 34.1640625 C46.83429671 30.39462815 52.26219824 31.48910895 57.75 31.6875 C58.92433594 31.71005859 60.09867188 31.73261719 61.30859375 31.75585938 C64.20701637 31.8147704 67.10286427 31.89698369 70 32 C65.76928207 36.99935218 61.41770623 41.84870213 56.9375 46.625 C56.33873047 47.26695312 55.73996094 47.90890625 55.12304688 48.5703125 C51.80969018 52.1123017 48.45236209 55.59332134 45 59 C46.33188741 62.56454713 47.91816049 65.71513246 49.90625 68.95703125 C50.48101074 69.89772461 51.05577148 70.83841797 51.64794922 71.80761719 C52.56471436 73.29503418 52.56471436 73.29503418 53.5 74.8125 C54.12277832 75.83118164 54.74555664 76.84986328 55.38720703 77.89941406 C58.27310358 82.61020488 61.18103364 87.30492774 64.1484375 91.96484375 C64.84549805 93.06252075 64.84549805 93.06252075 65.55664062 94.18237305 C66.41615105 95.53037189 67.28176306 96.87450549 68.15429688 98.21411133 C71 102.67048725 71 102.67048725 71 106 C63.12043031 107.3776482 54.70846697 108.63915277 47 106 C41.17945071 100.92744394 38.15456279 93.60797575 35.16210938 86.63232422 C34.1241849 84.28129445 32.98305544 82.1166235 31.671875 79.91015625 C30 77 30 77 30 75 C28.68712379 76.14540225 27.37470979 77.29133433 26.0625 78.4375 C25.33160156 79.07558594 24.60070313 79.71367188 23.84765625 80.37109375 C21.35790846 82.31094947 21.35790846 82.31094947 20.79467773 85.22485352 C20.75802002 86.18319092 20.7213623 87.14152832 20.68359375 88.12890625 C20.64169922 89.16337891 20.59980469 90.19785156 20.55664062 91.26367188 C20.51732422 92.35228516 20.47800781 93.44089844 20.4375 94.5625 C20.39431641 95.65498047 20.35113281 96.74746094 20.30664062 97.87304688 C20.20018042 100.58186768 20.09955193 103.29091651 20 106 C13.4 106 6.8 106 0 106 C0 71.02 0 36.04 0 0 Z " fill="#0F0F0F" transform="translate(1242,515)"/>
<path d="M0 0 C6.17915927 4.86738244 9.27136746 11.17347737 11.72265625 18.52734375 C11.72265625 24.79734375 11.72265625 31.06734375 11.72265625 37.52734375 C-4.44734375 37.52734375 -20.61734375 37.52734375 -37.27734375 37.52734375 C-34.52135704 48.83635498 -34.52135704 48.83635498 -26.39453125 54.62890625 C-22.49908038 56.28195736 -18.42642241 55.96515237 -14.27734375 55.52734375 C-11.14548051 54.19463599 -9.74031731 53.4333064 -8.19140625 50.40234375 C-6.27734375 48.52734375 -6.27734375 48.52734375 -4.4440918 48.29785156 C-2.14079595 48.35877029 0.11832075 48.54045181 2.41015625 48.77734375 C3.20744141 48.84308594 4.00472656 48.90882813 4.82617188 48.9765625 C6.79332232 49.14147332 8.75829747 49.33196969 10.72265625 49.52734375 C9.88127653 56.32607876 7.19073761 60.75287866 1.828125 65.04296875 C-5.44350205 69.80466536 -12.46702826 72.08208713 -21.15234375 71.96484375 C-22.33642822 71.95348389 -22.33642822 71.95348389 -23.54443359 71.94189453 C-33.37181955 71.66492439 -41.07260573 68.23627184 -48.27734375 61.52734375 C-56.59001799 52.61148226 -58.68783072 41.72923378 -58.5546875 29.8203125 C-57.6020051 18.50888627 -53.14625447 9.90953939 -44.96484375 2.27734375 C-32.42301675 -7.95121294 -13.48680545 -8.7213133 0 0 Z " fill="#0F100F" transform="translate(841.27734375,550.47265625)"/>
<path d="M0 0 C9.23903002 6.71709007 9.23903002 6.71709007 11 12 C10.34 12 9.68 12 9 12 C8.7628125 12.56203125 8.525625 13.1240625 8.28125 13.703125 C6.71052303 16.51894042 4.78528536 18.47955416 2.5 20.75 C1.7059375 21.54921875 0.911875 22.3484375 0.09375 23.171875 C-2 25 -2 25 -4 25 C-5.12936626 23.74838275 -6.20492887 22.44781526 -7.25 21.125 C-11.00375102 16.76232428 -13.57314648 15.41029781 -19.31640625 14.72265625 C-25.86948435 14.31246358 -29.9866099 15.80084959 -35 20 C-41.10593255 25.94090735 -42.1924339 33.21372683 -42.375 41.4375 C-42.15896873 50.42980166 -41.01785649 57.95435851 -34.58203125 64.59375 C-29.45472634 69.15135436 -24.61275471 69.53246362 -17.96875 69.3515625 C-10.63438316 68.48301906 -6.6331914 64.69432617 -1 60 C3.62 64.62 8.24 69.24 13 74 C5.02971295 83.29866823 -2.02600223 88.10612449 -14.23925781 89.20068359 C-28.49454921 90.0990787 -40.73134842 88.51790951 -52.00390625 78.94140625 C-62.60008164 68.63553703 -66.91207076 56.23196211 -67.3125 41.625 C-67.07111354 28.78625759 -63.23931577 17.20066758 -54.4375 7.75 C-40.56490507 -5.45704315 -17.25673597 -8.93567972 0 0 Z " fill="#0E0F0E" transform="translate(566,428)"/>
<path d="M0 0 C5.47126054 4.31250012 7.50570776 8.6433767 8.7890625 15.41015625 C4.89504123 16.29980156 1.1560758 16.6658547 -2.8359375 16.78515625 C-3.96257812 16.83414063 -5.08921875 16.883125 -6.25 16.93359375 C-7.22710938 16.76085937 -8.20421875 16.588125 -9.2109375 16.41015625 C-10.859375 14.01171875 -10.859375 14.01171875 -12.2109375 11.41015625 C-15.05513045 9.47119925 -17.36790333 9.13710695 -20.7734375 9.16015625 C-21.92005859 9.15242187 -21.92005859 9.15242187 -23.08984375 9.14453125 C-25.51076512 9.28720015 -25.51076512 9.28720015 -28.2109375 11.41015625 C-28.46109623 14.99372866 -28.46109623 14.99372866 -28.2109375 18.41015625 C-21.56197313 21.73463844 -14.876713 23.72140259 -7.68408203 25.4831543 C0.23949213 27.52252282 5.62169023 31.0971447 9.87890625 38.23828125 C12.13024718 43.61057977 11.42190985 50.37325621 9.5390625 55.78515625 C6.39817078 62.85936651 1.74696749 66.32617037 -5.2109375 69.41015625 C-14.69158594 72.72030966 -27.46084485 73.33825391 -36.9609375 69.72265625 C-39.203125 68.60546875 -39.203125 68.60546875 -41.2109375 67.41015625 C-42.20480469 66.84941406 -42.20480469 66.84941406 -43.21875 66.27734375 C-47.79938517 63.38330228 -50.05838032 60.37759589 -52.2109375 55.41015625 C-52.5409375 52.44015625 -52.8709375 49.47015625 -53.2109375 46.41015625 C-46.6109375 46.41015625 -40.0109375 46.41015625 -33.2109375 46.41015625 C-32.2209375 48.72015625 -31.2309375 51.03015625 -30.2109375 53.41015625 C-26.65317538 55.78199767 -24.93073143 55.70840019 -20.7109375 55.72265625 C-19.56625 55.73941406 -18.4215625 55.75617187 -17.2421875 55.7734375 C-14.25241483 55.65094587 -14.25241483 55.65094587 -12.31640625 54.12109375 C-10.52511081 51.3487001 -11.02986403 48.60912085 -11.2109375 45.41015625 C-16.63410289 42.74614518 -21.91708556 40.873518 -27.7734375 39.41015625 C-37.02322232 37.04401194 -43.72846127 34.58644434 -49.2109375 26.41015625 C-51.23608272 20.33472059 -51.31140239 12.95780094 -48.7109375 7.03515625 C-45.00166533 0.77494603 -38.70819242 -3.11335399 -31.828125 -5.125 C-20.90611609 -7.06487919 -9.30105763 -6.35510511 0 0 Z " fill="#0E0F0E" transform="translate(1367.2109375,550.58984375)"/>
<path d="M0 0 C0 5.61 0 11.22 0 17 C-1.670625 17.04125 -3.34125 17.0825 -5.0625 17.125 C-10.08262315 17.59018516 -12.85374832 18.68264223 -16.5625 22.0390625 C-21.05918631 28.17312915 -21.46088486 33.93944239 -21.51171875 41.30859375 C-21.52966995 42.27531509 -21.54762115 43.24203644 -21.56611633 44.23805237 C-21.61999511 47.30449147 -21.65404309 50.37077692 -21.6875 53.4375 C-21.72069286 55.5254119 -21.75518433 57.61330359 -21.79101562 59.70117188 C-21.87570875 64.80066999 -21.94262679 69.90012431 -22 75 C-25.31248187 75.02888146 -28.62493167 75.04675799 -31.9375 75.0625 C-32.88302734 75.07087891 -33.82855469 75.07925781 -34.80273438 75.08789062 C-36.15141602 75.09272461 -36.15141602 75.09272461 -37.52734375 75.09765625 C-38.35999756 75.10289307 -39.19265137 75.10812988 -40.05053711 75.11352539 C-42 75 -42 75 -43 74 C-43.09439978 71.73008113 -43.11742226 69.45718033 -43.11352539 67.18530273 C-43.11367142 66.47314606 -43.11381744 65.76098938 -43.1139679 65.0272522 C-43.1132687 62.66266888 -43.10547606 60.29816339 -43.09765625 57.93359375 C-43.09579209 56.29834537 -43.09436818 54.66309643 -43.09336853 53.02784729 C-43.08954318 48.71565215 -43.07971275 44.40349048 -43.06866455 40.09130859 C-43.0584508 35.69434054 -43.05387099 31.29736711 -43.04882812 26.90039062 C-43.03809049 18.26690998 -43.02049356 9.63346301 -43 1 C-37.39 1 -31.78 1 -26 1 C-25.01 3.64 -24.02 6.28 -23 9 C-21.700625 7.3603125 -21.700625 7.3603125 -20.375 5.6875 C-14.71806566 -0.84176534 -8.31031184 -2.77010395 0 0 Z " fill="#101010" transform="translate(1231,546)"/>
<path d="M0 0 C4.7336745 1.66555214 7.26906674 3.80606677 10 8 C11.89041705 12.64134652 12.3535949 16.91249743 12.3125 21.875 C12.30404053 22.93618042 12.30404053 22.93618042 12.29541016 24.01879883 C12.15671977 29.97493312 11.81164063 35.03090749 7.53515625 39.546875 C2.32394671 44.08279333 -1.29413513 44.34970429 -8.015625 44.27734375 C-12.04015882 43.90333603 -14.08009163 42.77391295 -17 40 C-23.08421819 32.27139851 -22.71279438 23.44703533 -22 14 C-20.40420838 7.97246708 -16.96390406 4.56106161 -12 1 C-8.30506957 -0.84746521 -4.04115396 -0.3419438 0 0 Z " fill="#FBFBFA" transform="translate(1144,561)"/>
<path d="M0 0 C6.43233392 3.58287011 8.58773501 8.40773628 10.83984375 15.1640625 C11.6534321 23.05987073 10.61173354 30.12626814 6.83984375 37.1640625 C4.03120643 40.40259329 0.79696328 42.96899013 -3.55078125 43.40234375 C-8.08252853 43.51997107 -11.39777806 43.49673662 -15.59765625 41.6640625 C-21.06944994 36.32572719 -23.30181616 29.645501 -23.47265625 22.1015625 C-23.4030592 15.16505606 -22.39366705 8.81970264 -17.6640625 3.47265625 C-12.5546126 -0.99970514 -6.39418901 -2.47442396 0 0 Z " fill="#F9FAF8" transform="translate(908.16015625,561.8359375)"/>
<path d="M0 0 C3.81978202 1.77347022 5.48336877 3.25949523 7.875 6.6875 C11.10301094 16.19219889 7.88899881 24.99977171 3.6796875 33.7421875 C0.48859494 39.47917904 -3.25785106 44.62713414 -9 48 C-12.13865324 48.81028995 -14.72468209 48.94882316 -18 49 C-18.66 46.36 -19.32 43.72 -20 41 C-18.9275 40.46375 -17.855 39.9275 -16.75 39.375 C-11.74473337 36.49317982 -9.35488955 32.60376089 -7.75 27.125 C-7.37875 25.578125 -7.37875 25.578125 -7 24 C-7.886875 23.938125 -8.77375 23.87625 -9.6875 23.8125 C-13.79311386 22.80546264 -15.32399591 21.21120491 -18 18 C-19.23534045 14.29397865 -19.45528745 11.90246386 -19 8 C-13.96379831 0.15902137 -9.05210327 -0.90776742 0 0 Z " fill="#0E0F0E" transform="translate(892,348)"/>
<path d="M0 0 C6.6 0 13.2 0 20 0 C20.04514153 7.65808623 20.08185301 15.31612312 20.10362434 22.97430992 C20.11407224 26.53012399 20.12824959 30.0858425 20.15087891 33.64160156 C20.17671832 37.727223 20.18646444 41.81274369 20.1953125 45.8984375 C20.20563507 47.17866791 20.21595764 48.45889832 20.22659302 49.77792358 C20.22674408 50.95899689 20.22689514 52.14007019 20.22705078 53.35693359 C20.231492 54.40062103 20.23593323 55.44430847 20.24050903 56.5196228 C20 59 20 59 18 61 C18 41.53 18 22.06 18 2 C12.72 2 7.44 2 2 2 C2 35.66 2 69.32 2 104 C2.99 103.505 2.99 103.505 4 103 C6.37123246 102.76970044 8.74741943 102.58880058 11.125 102.4375 C12.40632813 102.35371094 13.68765625 102.26992188 15.0078125 102.18359375 C15.99523438 102.12300781 16.98265625 102.06242188 18 102 C17.94199219 100.69804688 17.88398437 99.39609375 17.82421875 98.0546875 C17.77730227 96.32816099 17.73180414 94.60159552 17.6875 92.875 C17.64560547 92.0190625 17.60371094 91.163125 17.56054688 90.28125 C17.47702057 85.93788218 17.53663325 82.95660651 20.34375 79.5 C22.7866875 77.20076471 25.02481526 75.53009501 28 74 C26.84389382 76.83771518 25.96857871 78.02366295 23.46875 79.90625 C19.75318445 84.56246506 20.21935977 89.01756195 20.1875 94.8125 C20.16236328 95.88693359 20.13722656 96.96136719 20.11132812 98.06835938 C20.05258395 100.71184737 20.02339856 103.3559629 20 106 C13.4 106 6.8 106 0 106 C0 71.02 0 36.04 0 0 Z " fill="#080808" transform="translate(1242,515)"/>
<path d="M0 0 C4.71481784 4.24333606 5.39777357 5.63664144 6.5 12.25 C-4.06 12.25 -14.62 12.25 -25.5 12.25 C-24.4728108 6.08686481 -23.74566181 4.49566181 -19.5 0.25 C-13.23092274 -2.83728428 -6.25351816 -3.12675908 0 0 Z " fill="#FAFAF9" transform="translate(830.5,561.75)"/>
<path d="M0 0 C2.31 0.33 4.62 0.66 7 1 C7 1.33 7 1.66 7 2 C5.35 2 3.7 2 2 2 C2.33 2.66 2.66 3.32 3 4 C3.10258333 6.34127159 3.13845766 8.68554475 3.14526367 11.02905273 C3.15030159 12.11489403 3.15030159 12.11489403 3.15544128 13.22267151 C3.16497116 15.62632956 3.16689618 18.02991795 3.16796875 20.43359375 C3.17118268 22.10832243 3.17454686 23.78305084 3.17805481 25.45777893 C3.18405309 28.97763722 3.18589427 32.49747094 3.18530273 36.01733398 C3.1852017 40.50251225 3.19878944 44.98753011 3.21607494 49.47267056 C3.22726632 52.93791915 3.22921967 56.40313004 3.22869301 59.86839485 C3.22986488 61.52000539 3.23424155 63.17161716 3.24202538 64.82320976 C3.28001633 73.72607942 3.09448599 82.28601241 1 91 C0.34 91 -0.32 91 -1 91 C-0.67 60.97 -0.34 30.94 0 0 Z " fill="#2A2A2A" transform="translate(713,348)"/>
<path d="M0 0 C0 27.33333333 0 54.66666667 0 82 C-0.66 82 -1.32 82 -2 82 C-2.90229286 65.88882658 -3.21584808 49.80552212 -3.24023438 33.66992188 C-3.24850503 30.35008147 -3.27022202 27.03087219 -3.29820633 23.71117783 C-3.32116722 20.51060654 -3.32326009 17.31001716 -3.328125 14.109375 C-3.3404718 12.92003357 -3.3528186 11.73069214 -3.36553955 10.50531006 C-3.36253845 9.41526672 -3.35953735 8.32522339 -3.35644531 7.20214844 C-3.36009094 6.2425824 -3.36373657 5.28301636 -3.36749268 4.29437256 C-3.1855838 3.15865814 -3.1855838 3.15865814 -3 2 C-2.01 1.34 -1.02 0.68 0 0 Z " fill="#161616" transform="translate(489,486)"/>
<path d="M0 0 C0.66 0.33 1.32 0.66 2 1 C2 6.61 2 12.22 2 18 C-4.65688996 18.04933278 -11.31367418 18.08568755 -17.97070312 18.10986328 C-20.23667249 18.11993859 -22.50262881 18.13359918 -24.76855469 18.15087891 C-28.02021501 18.17506011 -31.27170387 18.18646763 -34.5234375 18.1953125 C-36.05005508 18.21079636 -36.05005508 18.21079636 -37.60751343 18.22659302 C-38.54833771 18.22674408 -39.48916199 18.22689514 -40.45849609 18.22705078 C-41.70425919 18.23371262 -41.70425919 18.23371262 -42.97518921 18.24050903 C-45 18 -45 18 -47 16 C-31.49 16 -15.98 16 0 16 C0 10.72 0 5.44 0 0 Z " fill="#000100" transform="translate(851,570)"/>
<path d="M0 0 C5.61 0 11.22 0 17 0 C16.67 1.65 16.34 3.3 16 5 C15.67 4.01 15.34 3.02 15 2 C10.71 2 6.42 2 2 2 C2 25.1 2 48.2 2 72 C1.67 72 1.34 72 1 72 C0.67 48.24 0.34 24.48 0 0 Z " fill="#010101" transform="translate(1188,547)"/>
<path d="M0 0 C6.6 0 13.2 0 20 0 C20 13.2 20 26.4 20 40 C19.67 40 19.34 40 19 40 C18.505 21.685 18.505 21.685 18 3 C12.06 3 6.12 3 0 3 C0 2.01 0 1.02 0 0 Z " fill="#3A3938" transform="translate(866,515)"/>
<path d="M0 0 C0.92683594 0.03158203 1.85367187 0.06316406 2.80859375 0.09570312 C5.08404237 0.17780694 7.35283746 0.29250225 9.625 0.4375 C9.625 1.0975 9.625 1.7575 9.625 2.4375 C7.78035156 2.42396484 7.78035156 2.42396484 5.8984375 2.41015625 C-2.89398437 2.18319975 -2.89398437 2.18319975 -10.90625 5.0625 C-12.71435708 7.13692447 -12.71435708 7.13692447 -14.375 10.4375 C-15.035 9.4475 -15.695 8.4575 -16.375 7.4375 C-11.92228332 0.31567675 -8.12772867 -0.52754872 0 0 Z M-20.375 13.4375 C-19.715 13.7675 -19.055 14.0975 -18.375 14.4375 C-21.84 17.4075 -21.84 17.4075 -25.375 20.4375 C-23.75762276 17.20274552 -22.89870777 15.73177979 -20.375 13.4375 Z " fill="#070707" transform="translate(1297.375,546.5625)"/>
<path d="M0 0 C3.3 0 6.6 0 10 0 C6 2 6 2 3 2 C5.12998678 10.19225684 7.76313629 16.79627161 15.32421875 21.421875 C17.53093949 22.65514436 19.74994325 23.84801016 22 25 C19.45882221 25.96012826 18.38655634 26.1679763 15.8515625 25.06640625 C6.89819738 19.01895788 2.25460601 12.64015818 0 2 C0 1.34 0 0.68 0 0 Z " fill="#070707" transform="translate(899,442)"/>
<path d="M0 0 C1 3 1 3 -1 10 C-8.59 10 -16.18 10 -24 10 C-24 8.35 -24 6.7 -24 5 C-23.01 5.495 -23.01 5.495 -22 6 C-22 6.66 -22 7.32 -22 8 C-15.4 8 -8.8 8 -2 8 C-1.67 5.69 -1.34 3.38 -1 1 C-0.67 0.67 -0.34 0.34 0 0 Z " fill="#040404" transform="translate(1014,611)"/>
<path d="M0 0 C9.03291701 5.32710491 15.63131073 13.09429192 21 22 C20.67 22.66 20.34 23.32 20 24 C16 19.25 16 19.25 16 17 C15.34 17 14.68 17 14 17 C10 12.52941176 10 12.52941176 10 10 C9.41734375 9.73445313 8.8346875 9.46890625 8.234375 9.1953125 C5.93825772 7.96697004 4.19643982 6.59685061 2.25 4.875 C1.63640625 4.33617187 1.0228125 3.79734375 0.390625 3.2421875 C-0.06828125 2.83226562 -0.5271875 2.42234375 -1 2 C-0.67 1.34 -0.34 0.68 0 0 Z " fill="#090909" transform="translate(594,379)"/>
<path d="M0 0 C7.59 0 15.18 0 23 0 C23 2.97 23 5.94 23 9 C22.67 9 22.34 9 22 9 C21.67 7.02 21.34 5.04 21 3 C15.72 3 10.44 3 5 3 C5 2.34 5 1.68 5 1 C3.35 1 1.7 1 0 1 C0 0.67 0 0.34 0 0 Z " fill="#202120" transform="translate(715,348)"/>
<path d="M0 0 C3.87498404 -0.02917234 7.74993958 -0.04685673 11.625 -0.0625 C12.71941406 -0.07087891 13.81382812 -0.07925781 14.94140625 -0.08789062 C16.53662109 -0.09272461 16.53662109 -0.09272461 18.1640625 -0.09765625 C19.62513428 -0.10551147 19.62513428 -0.10551147 21.11572266 -0.11352539 C24.14875321 0.00585494 27.01915268 0.44133276 30 1 C29.67 1.99 29.34 2.98 29 4 C25.42893905 4.08116048 22.44021459 3.87539013 19 3 C17.48766509 2.79558956 15.97143348 2.61872637 14.453125 2.46484375 C13.60878906 2.37783203 12.76445312 2.29082031 11.89453125 2.20117188 C11.02183594 2.11416016 10.14914062 2.02714844 9.25 1.9375 C8.36183594 1.84662109 7.47367187 1.75574219 6.55859375 1.66210938 C4.3726458 1.43881362 2.18646135 1.21820147 0 1 C0 0.67 0 0.34 0 0 Z " fill="#181817" transform="translate(468,284)"/>
<path d="M0 0 C5.29012124 4.40843437 10.18808428 9.07559794 15 14 C13.68 15.32 12.36 16.64 11 18 C10.67 17.34 10.34 16.68 10 16 C10.66 16 11.32 16 12 16 C9.47295673 10.78797325 5.38226641 7.6119868 1 4 C0.0925 4.61875 -0.815 5.2375 -1.75 5.875 C-4.14948817 7.44389611 -6.40961612 8.80443821 -9 10 C-7.84906278 6.54718834 -6.6794007 5.61917837 -3.9375 3.3125 C-2.83728516 2.37857422 -2.83728516 2.37857422 -1.71484375 1.42578125 C-1.14894531 0.95527344 -0.58304688 0.48476563 0 0 Z " fill="#020202" transform="translate(564,488)"/>
<path d="M0 0 C0.83265381 0.00523682 1.66530762 0.01047363 2.52319336 0.01586914 C3.42231445 0.0190918 4.32143555 0.02231445 5.24780273 0.02563477 C6.66609375 0.03820312 6.66609375 0.03820312 8.11303711 0.05102539 C9.06243164 0.05553711 10.01182617 0.06004883 10.98999023 0.06469727 C13.34356776 0.07652429 15.69702188 0.09300514 18.05053711 0.11352539 C17.79492388 2.45664669 17.45782938 4.79195942 17.05053711 7.11352539 C16.06053711 7.60852539 16.06053711 7.60852539 15.05053711 8.11352539 C15.38053711 6.13352539 15.71053711 4.15352539 16.05053711 2.11352539 C10.44053711 2.11352539 4.83053711 2.11352539 -0.94946289 2.11352539 C-1.27946289 3.10352539 -1.60946289 4.09352539 -1.94946289 5.11352539 C-2.51196289 3.17602539 -2.51196289 3.17602539 -2.94946289 1.11352539 C-1.94946289 0.11352539 -1.94946289 0.11352539 0 0 Z " fill="#151615" transform="translate(1084.949462890625,515.886474609375)"/>
<path d="M0 0 C2.31 0 4.62 0 7 0 C7 5.61 7 11.22 7 17 C3.37 17 -0.26 17 -4 17 C-3.67 16.34 -3.34 15.68 -3 15 C-0.36 15 2.28 15 5 15 C5 10.38 5 5.76 5 1 C3.35 1 1.7 1 0 1 C0 0.67 0 0.34 0 0 Z " fill="#040404" transform="translate(1224,546)"/>
<path d="M0 0 C0 2.7846228 -0.09580738 5.54264188 -0.21875 8.32421875 C-0.26386719 9.35224609 -0.30898438 10.38027344 -0.35546875 11.43945312 C-0.40316406 12.51130859 -0.45085937 13.58316406 -0.5 14.6875 C-0.57154297 16.31268555 -0.57154297 16.31268555 -0.64453125 17.97070312 C-0.76243692 20.64716175 -0.88095003 23.32359207 -1 26 C-1.66 26 -2.32 26 -3 26 C-3.08678303 22.04180389 -3.14031733 18.08385066 -3.1875 14.125 C-3.21263672 12.99707031 -3.23777344 11.86914062 -3.26367188 10.70703125 C-3.27333984 9.63066406 -3.28300781 8.55429687 -3.29296875 7.4453125 C-3.3086792 6.45031738 -3.32438965 5.45532227 -3.34057617 4.43017578 C-3.22818604 3.62821777 -3.1157959 2.82625977 -3 2 C-2.01 1.34 -1.02 0.68 0 0 Z " fill="#2B2B2B" transform="translate(489,486)"/>
<path d="M0 0 C0.33 0.66 0.66 1.32 1 2 C4.29201643 1.86145912 7.58350709 1.71292976 10.875 1.5625 C11.81214844 1.52318359 12.74929688 1.48386719 13.71484375 1.44335938 C14.61074219 1.40146484 15.50664063 1.35957031 16.4296875 1.31640625 C17.67081299 1.26141968 17.67081299 1.26141968 18.93701172 1.20532227 C21.06179429 1.11761673 21.06179429 1.11761673 23 0 C23 1.32 23 2.64 23 4 C15.41 4 7.82 4 0 4 C0 2.68 0 1.36 0 0 Z " fill="#030302" transform="translate(735,617)"/>
<path d="M0 0 C0.33 0 0.66 0 1 0 C1 7.92 1 15.84 1 24 C0.01 23.67 -0.98 23.34 -2 23 C-2 18.71 -2 14.42 -2 10 C-1.67 10 -1.34 10 -1 10 C-0.67 6.7 -0.34 3.4 0 0 Z " fill="#181818" transform="translate(489,606)"/>
<path d="M0 0 C0.83099079 2.59684622 0.98132259 4.4856126 0.875 7.25 C1.12433684 14.73010517 3.59679871 18.88886365 9 24 C9 24.99 9 25.98 9 27 C4.24756914 23.44544212 0.17313306 20.08091908 -1 14 C-1.2728106 9.65047255 -1.32763903 5.34751784 -1 1 C-0.67 0.67 -0.34 0.34 0 0 Z " fill="#050505" transform="translate(904,399)"/>
<path d="M0 0 C0 4.95 0 9.9 0 15 C-2.45943295 10.0811341 -2.15932336 7.41699411 -2 2 C-6.62 2 -11.24 2 -16 2 C-16 1.67 -16 1.34 -16 1 C-10.59280411 0.07962623 -5.48677955 -0.08441199 0 0 Z " fill="#050505" transform="translate(433,458)"/>
<path d="M0 0 C8.29385354 1.09387438 15.40472995 3.52711911 23 7 C23 7.66 23 8.32 23 9 C21.80375 8.5875 20.6075 8.175 19.375 7.75 C12.9817563 5.61209931 6.48957398 3.81855772 0 2 C0 1.34 0 0.68 0 0 Z " fill="#060706" transform="translate(940,413)"/>
<path d="M0 0 C7.26 0 14.52 0 22 0 C22 0.66 22 1.32 22 2 C18.13229545 3.28923485 14.46562684 3.14505706 10.4375 3.125 C9.65697266 3.12886719 8.87644531 3.13273438 8.07226562 3.13671875 C2.25335498 3.12667749 2.25335498 3.12667749 0 2 C0 1.34 0 0.68 0 0 Z " fill="#080808" transform="translate(1128,619)"/>
<path d="M0 0 C-1 3 -1 3 -3.4375 4.6875 C-8.55473989 6.57279891 -14.19569 7.24055069 -19.3046875 4.98046875 C-19.86414063 4.65691406 -20.42359375 4.33335937 -21 4 C-20.67 3.34 -20.34 2.68 -20 2 C-19.01 2.33 -18.02 2.66 -17 3 C-10.42008316 3.6517251 -5.81490063 0 0 0 Z " fill="#030404" transform="translate(950,450)"/>
<path d="M0 0 C0.66 0.66 1.32 1.32 2 2 C1.828125 4.06640625 1.828125 4.06640625 1.25 6.5625 C1.04761719 7.449375 0.84523438 8.33625 0.63671875 9.25 C0.42660156 10.1575 0.21648438 11.065 0 12 C-0.15855469 12.86625 -0.31710937 13.7325 -0.48046875 14.625 C-0.63128906 15.429375 -0.78210938 16.23375 -0.9375 17.0625 C-1.07027344 17.79597656 -1.20304688 18.52945313 -1.33984375 19.28515625 C-1.66662109 20.13400391 -1.66662109 20.13400391 -2 21 C-2.99 21.33 -3.98 21.66 -5 22 C-4.35482025 19.08318736 -3.7088818 16.16654627 -3.0625 13.25 C-2.88009766 12.425 -2.69769531 11.6 -2.50976562 10.75 C-2.33251953 9.95078125 -2.15527344 9.1515625 -1.97265625 8.328125 C-1.72914429 7.22839355 -1.72914429 7.22839355 -1.48071289 6.10644531 C-1.01446454 4.06338247 -0.51579351 2.03106238 0 0 Z " fill="#131313" transform="translate(759,537)"/>
<path d="M0 0 C4.455 0.99 4.455 0.99 9 2 C9 2.66 9 3.32 9 4 C9.515625 4.0825 10.03125 4.165 10.5625 4.25 C14.04455732 5.32140225 16.87200885 7.13523605 20 9 C19.67 9.99 19.34 10.98 19 12 C18.3709375 11.61328125 17.741875 11.2265625 17.09375 10.828125 C12.941837 8.30196107 8.82285538 5.85115031 4.4375 3.75 C1 2 1 2 0 0 Z " fill="#070707" transform="translate(500,303)"/>
<path d="M0 0 C6.93 0.33 13.86 0.66 21 1 C21 1.66 21 2.32 21 3 C17.87501937 3.02895976 14.7500731 3.04678483 11.625 3.0625 C10.73554687 3.07087891 9.84609375 3.07925781 8.9296875 3.08789062 C7.65351562 3.09272461 7.65351562 3.09272461 6.3515625 3.09765625 C5.17327881 3.10551147 5.17327881 3.10551147 3.97119141 3.11352539 C2 3 2 3 0 2 C0 1.34 0 0.68 0 0 Z " fill="#070707" transform="translate(532,514)"/>
<path d="M0 0 C0.33 0 0.66 0 1 0 C1 6.27 1 12.54 1 19 C0.01 18.67 -0.98 18.34 -2 18 C-2.20852314 11.59370576 -2.1583195 6.07027358 0 0 Z " fill="#212020" transform="translate(402,365)"/>
<path d="M0 0 C0.66 0 1.32 0 2 0 C2.598125 0.928125 3.19625 1.85625 3.8125 2.8125 C7.62038771 8.36113637 11.88434452 9.39930567 18.20703125 10.66796875 C19.09455078 10.83232422 19.09455078 10.83232422 20 11 C20 11.33 20 11.66 20 12 C13.76318545 12.56470152 9.35015148 12.54187104 4.40625 8.4375 C1.97090906 5.94804038 0 3.56792709 0 0 Z " fill="#050505" transform="translate(1122,595)"/>
<path d="M0 0 C0 0.99 0 1.98 0 3 C-2.23046875 4.90234375 -2.23046875 4.90234375 -5.1875 6.9375 C-8.89851745 9.51583743 -12.4999886 12.13984443 -16 15 C-16 12 -16 12 -14.53125 10.3515625 C-9.92168724 6.43343416 -5.2421009 3.02536142 0 0 Z " fill="#070707" transform="translate(441,308)"/>
<path d="M0 0 C2.59847505 -0.30395006 4.90639107 -0.4186308 7.5 -0.375 C8.18964844 -0.38660156 8.87929688 -0.39820313 9.58984375 -0.41015625 C11.59375 -0.3984375 11.59375 -0.3984375 15 0 C15.66 0.99 16.32 1.98 17 3 C10.73 3 4.46 3 -2 3 C-1.34 2.01 -0.68 1.02 0 0 Z " fill="#333332" transform="translate(868,618)"/>
<path d="M0 0 C7.10141975 3.55070987 13.72717684 8.55723463 17 16 C14.36045156 14.96303454 13.06451822 14.08363473 11.3125 11.8125 C8.52908529 8.42726589 5.3582141 6.11863639 1.828125 3.55078125 C1.22484375 3.03902344 0.6215625 2.52726562 0 2 C0 1.34 0 0.68 0 0 Z " fill="#060606" transform="translate(840,354)"/>
<path d="M0 0 C0.66 0 1.32 0 2 0 C2.495 1.0725 2.99 2.145 3.5 3.25 C6.01221022 7.66648345 9.32282705 9.31436539 14 11 C16.81448914 11.76754832 16.81448914 11.76754832 19 12 C19 12.33 19 12.66 19 13 C12.92219681 13.41915884 9.79396476 13.15476946 5 9 C0 3.07651715 0 3.07651715 0 0 Z " fill="#070707" transform="translate(885,594)"/>
<path d="M0 0 C0.90238747 2.70716242 1.11851302 4.23776768 1.09765625 7.01171875 C1.09282227 8.14770508 1.09282227 8.14770508 1.08789062 9.30664062 C1.07951172 10.09232422 1.07113281 10.87800781 1.0625 11.6875 C1.05798828 12.48478516 1.05347656 13.28207031 1.04882812 14.10351562 C1.0370585 16.06904257 1.01912348 18.03453085 1 20 C-1 19 -1 19 -1.61328125 17.3515625 C-2.10887841 14.33793126 -2.17026637 11.42879961 -2.1875 8.375 C-2.20167969 7.22773437 -2.21585938 6.08046875 -2.23046875 4.8984375 C-2 2 -2 2 0 0 Z " fill="#181918" transform="translate(1103,575)"/>
<path d="M0 0 C4.06232897 1.74471821 5.78099313 3.8284152 8.02734375 7.55859375 C9.77169653 11.93698929 9.38276815 16.37275837 9 21 C8.67 21 8.34 21 8 21 C7.79503906 20.10796875 7.59007812 19.2159375 7.37890625 18.296875 C6.97478516 16.54117187 6.97478516 16.54117187 6.5625 14.75 C6.29566406 13.58984375 6.02882813 12.4296875 5.75390625 11.234375 C5.19032 8.81650239 4.61330049 6.40556696 4 4 C3.34 4 2.68 4 2 4 C1.34 2.68 0.68 1.36 0 0 Z " fill="#050505" transform="translate(965,423)"/>
<path d="M0 0 C6.0521085 0.31036454 10.41407224 3.27011209 15 7 C16.76953125 9.19921875 16.76953125 9.19921875 18 11 C15.33333333 9.66666667 12.66666667 8.33333333 10 7 C10 6.34 10 5.68 10 5 C6.7 4.01 3.4 3.02 0 2 C0 1.34 0 0.68 0 0 Z " fill="#060606" transform="translate(1150,547)"/>
<path d="M0 0 C0 0.66 0 1.32 0 2 C-2.88265149 2.96088383 -4.67662271 3.11670941 -7.66796875 3.09765625 C-8.56064453 3.09443359 -9.45332031 3.09121094 -10.37304688 3.08789062 C-11.76620117 3.07532227 -11.76620117 3.07532227 -13.1875 3.0625 C-14.12787109 3.05798828 -15.06824219 3.05347656 -16.03710938 3.04882812 C-18.35813712 3.03704626 -20.67903644 3.02059558 -23 3 C-23 2.67 -23 2.34 -23 2 C-19.91703293 1.66322033 -16.833573 1.33118201 -13.75 1 C-12.87730469 0.90460937 -12.00460937 0.80921875 -11.10546875 0.7109375 C-10.26113281 0.62070312 -9.41679688 0.53046875 -8.546875 0.4375 C-7.77182617 0.35371094 -6.99677734 0.26992188 -6.19824219 0.18359375 C-4.13842677 0.01156119 -2.06698688 0 0 0 Z " fill="#070707" transform="translate(554,549)"/>
<path d="M0 0 C0 0.66 0 1.32 0 2 C-3.18824568 3.59412284 -6.62896662 3.10174735 -10.125 3.0625 C-10.87910156 3.05798828 -11.63320313 3.05347656 -12.41015625 3.04882812 C-14.27347127 3.03703499 -16.13674555 3.01909942 -18 3 C-18 2.34 -18 1.68 -18 1 C-15.56257869 0.83210874 -13.12507454 0.66563867 -10.6875 0.5 C-9.99720703 0.45230469 -9.30691406 0.40460937 -8.59570312 0.35546875 C-5.72337641 0.16120511 -2.87986212 0 0 0 Z " fill="#080808" transform="translate(831,619)"/>
<path d="M0 0 C0 3 0 3 -1.609375 4.8671875 C-2.31578125 5.52976562 -3.0221875 6.19234375 -3.75 6.875 C-6.75785632 9.76552859 -9.49030267 12.65373689 -12 16 C-12.66 15.67 -13.32 15.34 -14 15 C-13.21654285 13.82780457 -12.42297164 12.66236332 -11.625 11.5 C-11.18414062 10.8503125 -10.74328125 10.200625 -10.2890625 9.53125 C-9.65097656 8.77328125 -9.65097656 8.77328125 -9 8 C-8.34 8 -7.68 8 -7 8 C-6.67 7.01 -6.34 6.02 -6 5 C-5.34 5 -4.68 5 -4 5 C-4 4.34 -4 3.68 -4 3 C-2 1.375 -2 1.375 0 0 Z " fill="#050504" transform="translate(376,396)"/>
<path d="M0 0 C0.99 0.33 1.98 0.66 3 1 C3.33 2.98 3.66 4.96 4 7 C-1.28 7 -6.56 7 -12 7 C-12 6.67 -12 6.34 -12 6 C-7.71 5.34 -3.42 4.68 1 4 C0.67 2.68 0.34 1.36 0 0 Z " fill="#070707" transform="translate(1372,559)"/>
<path d="M0 0 C5.75 0.875 5.75 0.875 8 2 C8.33 3.32 8.66 4.64 9 6 C12.63 6.33 16.26 6.66 20 7 C20 7.33 20 7.66 20 8 C17.89758397 8.13496251 15.7927039 8.23197307 13.6875 8.3125 C12.51574219 8.37050781 11.34398437 8.42851563 10.13671875 8.48828125 C7 8 7 8 5.21875 5.59375 C4.8165625 4.7378125 4.414375 3.881875 4 3 C1.93045153 1.21655822 1.93045153 1.21655822 0 0 Z " fill="#30302F" transform="translate(1351,559)"/>
<path d="M0 0 C3.88701516 1.29567172 4.81212435 3.07803051 7.1875 6.375 C7.90292969 7.35210937 8.61835938 8.32921875 9.35546875 9.3359375 C11 12 11 12 11 15 C10.34 14.67 9.68 14.34 9 14 C9 13.34 9 12.68 9 12 C8.01 11.67 7.02 11.34 6 11 C4.39453125 8.49609375 4.39453125 8.49609375 2.8125 5.4375 C2.28269531 4.42558594 1.75289063 3.41367187 1.20703125 2.37109375 C0.80871094 1.58863281 0.41039062 0.80617188 0 0 Z " fill="#060605" transform="translate(360,486)"/>
<path d="M0 0 C2.52419593 2.52419593 2.78957038 4.42357863 3.625 7.875 C3.88539063 8.92429687 4.14578125 9.97359375 4.4140625 11.0546875 C5 14 5 14 5 18 C4.34 18 3.68 18 3 18 C1.14256832 11.88595404 -0.42765417 6.41481258 0 0 Z " fill="#080808" transform="translate(338,465)"/>
<path d="M0 0 C4.88049925 3.9419417 9.0580583 8.11950075 13 13 C8.77604752 11.63886645 6.57106374 9.84515115 3.6875 6.5 C2.99011719 5.7059375 2.29273438 4.911875 1.57421875 4.09375 C0 2 0 2 0 0 Z " fill="#151515" transform="translate(356,507)"/>
<path d="M0 0 C5.61 0 11.22 0 17 0 C15.02 0.99 15.02 0.99 13 2 C12.67 2.33 12.34 2.66 12 3 C9.66702567 3.04092937 7.33294775 3.04241723 5 3 C5 2.34 5 1.68 5 1 C3.35 1 1.7 1 0 1 C0 0.67 0 0.34 0 0 Z " fill="#1D1E1D" transform="translate(1130,545)"/>
<path d="M0 0 C2.93576279 1.012332 3.97512741 1.96357942 5.75 4.5625 C7.30903894 8.84985708 7.27038392 12.49360134 7 17 C6.67 17 6.34 17 6 17 C5.67 14.36 5.34 11.72 5 9 C4.34 9 3.68 9 3 9 C2.814375 8.1646875 2.814375 8.1646875 2.625 7.3125 C1.94023145 4.77885636 1.00866237 2.42078968 0 0 Z " fill="#232322" transform="translate(894,350)"/>
<path d="M0 0 C2.31 0 4.62 0 7 0 C4 2 4 2 2 2 C3.32 5.3 4.64 8.6 6 12 C5.01 12 4.02 12 3 12 C2.49166409 10.75336669 1.99368855 9.50250613 1.5 8.25 C1.2215625 7.55390625 0.943125 6.8578125 0.65625 6.140625 C0 4 0 4 0 0 Z " fill="#050505" transform="translate(1314,598)"/>
<path d="M0 0 C4.95 0.33 9.9 0.66 15 1 C15 1.99 15 2.98 15 4 C7.575 3.01 7.575 3.01 0 2 C0 1.34 0 0.68 0 0 Z " fill="#080908" transform="translate(837,599)"/>
<path d="M0 0 C0.33 0.33 0.66 0.66 1 1 C3.01594582 1.23427778 5.038474 1.41336124 7.0625 1.5625 C8.16722656 1.64628906 9.27195312 1.73007812 10.41015625 1.81640625 C11.26480469 1.87699219 12.11945312 1.93757812 13 2 C13 2.33 13 2.66 13 3 C-2.74487472 3.18451025 -2.74487472 3.18451025 -10 2 C-10 1.67 -10 1.34 -10 1 C-6.60169639 0.22324489 -3.48880949 -0.19382275 0 0 Z " fill="#3A3B3A" transform="translate(530,550)"/>
<path d="M0 0 C4.37934119 0.51958285 8.68803391 1.05675742 13 2 C12.01 2.495 12.01 2.495 11 3 C11 3.66 11 4.32 11 5 C8.03 4.505 8.03 4.505 5 4 C5 3.34 5 2.68 5 2 C3.02 2.33 1.04 2.66 -1 3 C-0.67 2.01 -0.34 1.02 0 0 Z " fill="#1A1A19" transform="translate(508,532)"/>
<path d="M0 0 C0 0.33 0 0.66 0 1 C-2.31 1 -4.62 1 -7 1 C-7 1.66 -7 2.32 -7 3 C-8.65 3.33 -10.3 3.66 -12 4 C-12.33 6.31 -12.66 8.62 -13 11 C-13.33 11 -13.66 11 -14 11 C-14 7.7 -14 4.4 -14 1 C-9.23692563 0.04738513 -4.8333472 -0.08333357 0 0 Z " fill="#292928" transform="translate(424,458)"/>
<path d="M0 0 C4.56048012 3.61251516 8.01665146 6.98797445 11 12 C10.01 12 9.02 12 8 12 C4 7.65714286 4 7.65714286 4 5 C3.01 4.67 2.02 4.34 1 4 C0.3125 1.9375 0.3125 1.9375 0 0 Z " fill="#080807" transform="translate(537,306)"/>
<path d="M0 0 C0.33 0.99 0.66 1.98 1 3 C-0.97845068 6.39162974 -3.0755255 9.36797295 -6 12 C-6.66 11.67 -7.32 11.34 -8 11 C-5.36 7.37 -2.72 3.74 0 0 Z " fill="#070707" transform="translate(1156,593)"/>
<path d="M0 0 C0.33 0.66 0.66 1.32 1 2 C0.67 2.99 0.34 3.98 0 5 C-0.66 5 -1.32 5 -2 5 C-1.79375 5.598125 -1.5875 6.19625 -1.375 6.8125 C-1 9 -1 9 -3 12 C-3.99 12.33 -4.98 12.66 -6 13 C-3.10933941 3.40546697 -3.10933941 3.40546697 0 0 Z " fill="#161616" transform="translate(791,558)"/>
<path d="M0 0 C5.98993047 -0.3152595 9.63560356 0.31780178 15 3 C15 3.66 15 4.32 15 5 C13.06077578 4.54901762 11.12366406 4.08894441 9.1875 3.625 C8.10855469 3.36976563 7.02960938 3.11453125 5.91796875 2.8515625 C3 2 3 2 0 0 Z " fill="#080808" transform="translate(1350,546)"/>
<path d="M0 0 C3 1 3 1 4 3 C4.46537396 9.39889197 4.46537396 9.39889197 2.5 11.9375 C2.005 12.288125 1.51 12.63875 1 13 C0.01 12.67 -0.98 12.34 -2 12 C-1.01 11.34 -0.02 10.68 1 10 C1.27028374 6.28359861 1.180933 3.542799 0 0 Z " fill="#060606" transform="translate(444,525)"/>
<path d="M0 0 C1.485 0.99 1.485 0.99 3 2 C3.29296875 4.1640625 3.29296875 4.1640625 3.1875 6.625 C3.16042969 7.44226563 3.13335938 8.25953125 3.10546875 9.1015625 C3.07066406 9.72804688 3.03585937 10.35453125 3 11 C2.01 11.33 1.02 11.66 0 12 C0 8.04 0 4.08 0 0 Z " fill="#171817" transform="translate(783,577)"/>
<path d="M0 0 C-3.80544125 2.9272625 -7.69729493 5.84864746 -12 8 C-11.875 6.25 -11.875 6.25 -11 4 C-7.31618907 0.98597288 -4.80562023 -0.56536709 0 0 Z " fill="#080808" transform="translate(1223,546)"/>
<path d="M0 0 C5.21880617 1.09230827 7.2666403 3.07172617 10.21484375 7.24609375 C11 9 11 9 10 12 C9.61328125 11.46890625 9.2265625 10.9378125 8.828125 10.390625 C6.08649307 6.67177773 3.40892784 3.14670262 0 0 Z " fill="#030303" transform="translate(1145,560)"/>
<path d="M0 0 C0.66 0.33 1.32 0.66 2 1 C-1.82042691 5.1842771 -4.32976351 7.64994369 -10 9 C-8.77946141 5.33838422 -7.63217696 4.83729526 -4.4375 2.8125 C-3.61121094 2.28269531 -2.78492188 1.75289062 -1.93359375 1.20703125 C-1.29550781 0.80871094 -0.65742187 0.41039062 0 0 Z " fill="#080808" transform="translate(591,514)"/>
<path d="M0 0 C0.33 0.66 0.66 1.32 1 2 C-0.375 4 -0.375 4 -2 6 C-2.66 6 -3.32 6 -4 6 C-4.66 7.65 -5.32 9.3 -6 11 C-6.99 11 -7.98 11 -9 11 C-6.36113346 6.7973607 -3.63559661 3.43361902 0 0 Z " fill="#050505" transform="translate(415,310)"/>
<path d="M0 0 C0.66 0 1.32 0 2 0 C3.13764351 4.26616316 4 7.56486311 4 12 C3.34 12 2.68 12 2 12 C0.70756464 7.8803623 -0.26252625 4.33168317 0 0 Z " fill="#070707" transform="translate(500,477)"/>
<path d="M0 0 C5.41342681 1.14514798 7.9342948 2.34012809 11 7 C10.34 7.66 9.68 8.32 9 9 C8.443125 8.21625 7.88625 7.4325 7.3125 6.625 C4.92331435 3.91295142 3.39926587 3.03866457 0 2 C0 1.34 0 0.68 0 0 Z " fill="#090808" transform="translate(940,393)"/>
<path d="M0 0 C0 3.80345877 -1.13786331 4.77701015 -3.5 7.6875 C-4.1496875 8.49574219 -4.799375 9.30398438 -5.46875 10.13671875 C-5.9740625 10.75160156 -6.479375 11.36648438 -7 12 C-7.66 11.67 -8.32 11.34 -9 11 C-6.36113346 6.7973607 -3.63559661 3.43361902 0 0 Z " fill="#030302" transform="translate(791,372)"/>
<path d="M0 0 C1.46067199 0.45082469 2.91848032 0.91093537 4.375 1.375 C5.18710938 1.63023437 5.99921875 1.88546875 6.8359375 2.1484375 C9 3 9 3 11 5 C6.28596212 4.52060632 2.33420699 4.03165952 -2 2 C-1.34 1.34 -0.68 0.68 0 0 Z " fill="#171716" transform="translate(1329,617)"/>
<path d="M0 0 C0 3.34419152 -0.47519394 4.06840321 -2.375 6.6875 C-2.81585938 7.31011719 -3.25671875 7.93273437 -3.7109375 8.57421875 C-4.13632812 9.04472656 -4.56171875 9.51523437 -5 10 C-5.66 10 -6.32 10 -7 10 C-5.6062718 5.56541027 -3.39417765 3.12621626 0 0 Z " fill="#080808" transform="translate(357,395)"/>
<path d="M0 0 C3.9492568 0.55105909 7.34920174 1.38935371 11 3 C10.67 3.99 10.34 4.98 10 6 C5.05 4.02 5.05 4.02 0 2 C0 1.34 0 0.68 0 0 Z " fill="#070807" transform="translate(571,368)"/>
<path d="M0 0 C1.45823212 -0.0270043 2.91660675 -0.04639787 4.375 -0.0625 C5.18710937 -0.07410156 5.99921875 -0.08570313 6.8359375 -0.09765625 C9 0 9 0 11 1 C11 1.66 11 2.32 11 3 C7.04 2.67 3.08 2.34 -1 2 C-0.67 1.34 -0.34 0.68 0 0 Z " fill="#060606" transform="translate(883,348)"/>
<path d="M0 0 C0 3 0 3 -2.1875 5.5625 C-4.81277706 7.83774012 -6.72443519 8.97053677 -10 10 C-6.66666667 6.66666667 -3.33333333 3.33333333 0 0 Z " fill="#080808" transform="translate(1168,607)"/>
<path d="M0 0 C0.99 0.495 0.99 0.495 2 1 C2.8515625 3.72265625 2.8515625 3.72265625 3.625 7.0625 C3.88539063 8.16722656 4.14578125 9.27195312 4.4140625 10.41015625 C4.60742188 11.26480469 4.80078125 12.11945312 5 13 C1.61802739 9.71068418 0.06170168 7.60424363 -0.125 2.75 C-0.08375 1.8425 -0.0425 0.935 0 0 Z " fill="#060606" transform="translate(802,588)"/>
<path d="M0 0 C3.76299173 1.68344367 4.83844768 2.60665523 6.4375 6.5 C7 10 7 10 5 13 C4.731875 11.741875 4.46375 10.48375 4.1875 9.1875 C3.38855405 5.92849028 2.65002135 4.16819928 0 2 C0 1.34 0 0.68 0 0 Z " fill="#030303" transform="translate(946,435)"/>
<path d="M0 0 C3.3 0 6.6 0 10 0 C10 0.33 10 0.66 10 1 C7.69 1.33 5.38 1.66 3 2 C3 3.32 3 4.64 3 6 C2.34 6 1.68 6 1 6 C0.67 4.02 0.34 2.04 0 0 Z " fill="#030403" transform="translate(653,432)"/>
<path d="M0 0 C3.71888239 0.50712033 6.73454239 1.11608215 10 3 C9.67 3.99 9.34 4.98 9 6 C4.545 4.02 4.545 4.02 0 2 C0 1.34 0 0.68 0 0 Z " fill="#080909" transform="translate(828,349)"/>
<path d="M0 0 C0.99 0.33 1.98 0.66 3 1 C2.02391783 3.92824652 0.89213369 5.61426621 -1 8 C-1.99 7.67 -2.98 7.34 -4 7 C-3.34 5.68 -2.68 4.36 -2 3 C-1.67 3.33 -1.34 3.66 -1 4 C-0.67 2.68 -0.34 1.36 0 0 Z " fill="#181818" transform="translate(1065,582)"/>
<path d="M0 0 C0 0.66 0 1.32 0 2 C-1.65385233 3.34919532 -3.321702 4.68133728 -5 6 C-5.99 7.485 -5.99 7.485 -7 9 C-7.66 8.67 -8.32 8.34 -9 8 C-3.95652174 0 -3.95652174 0 0 0 Z " fill="#060606" transform="translate(813,560)"/>
<path d="M0 0 C2.74657411 1.31252214 5.25723654 2.75293501 7.75 4.5 C8.67039062 5.13421875 8.67039062 5.13421875 9.609375 5.78125 C10.06828125 6.1834375 10.5271875 6.585625 11 7 C11 7.66 11 8.32 11 9 C5.70841026 7.59928507 3.22521956 4.14512755 0 0 Z " fill="#040404" transform="translate(785,438)"/>
<path d="M0 0 C0 0.66 0 1.32 0 2 C-0.66 2 -1.32 2 -2 2 C-2.2475 2.639375 -2.495 3.27875 -2.75 3.9375 C-4 6 -4 6 -6.125 6.75 C-7.053125 6.87375 -7.053125 6.87375 -8 7 C-6.56389554 2.69168661 -4.72692072 0 0 0 Z " fill="#161616" transform="translate(577,438)"/>
<path d="M0 0 C-1.4375 1.5625 -1.4375 1.5625 -4 3 C-7.05380927 2.96846324 -9.99653222 2.53266629 -13 2 C-13 1.67 -13 1.34 -13 1 C-8.61414671 0.29826347 -4.44209357 -0.10834375 0 0 Z " fill="#363635" transform="translate(679,429)"/>
<path d="M0 0 C1.40907283 2.81814566 0.50872691 4.17277204 -0.4375 7.125 C-0.72496094 8.03507812 -1.01242187 8.94515625 -1.30859375 9.8828125 C-1.53675781 10.58148438 -1.76492188 11.28015625 -2 12 C-2.66 11.67 -3.32 11.34 -4 11 C-3.71758359 9.53984709 -3.42373386 8.08190207 -3.125 6.625 C-2.96257812 5.81289063 -2.80015625 5.00078125 -2.6328125 4.1640625 C-2 2 -2 2 0 0 Z " fill="#060605" transform="translate(344,418)"/>
<path d="M0 0 C3.37462715 0.54723683 5.08235 1.0549 8 3 C7.67 3.99 7.34 4.98 7 6 C6.01 5.67 5.02 5.34 4 5 C4 4.34 4 3.68 4 3 C2.68 2.67 1.36 2.34 0 2 C0 1.34 0 0.68 0 0 Z " fill="#151515" transform="translate(1363,578)"/>
<path d="M0 0 C0 0.99 0 1.98 0 3 C-1.31337396 4.0260734 -2.64664105 5.02727325 -4 6 C-4 6.66 -4 7.32 -4 8 C-4.66 8 -5.32 8 -6 8 C-6.33 6.35 -6.66 4.7 -7 3 C-5.5459375 2.5359375 -5.5459375 2.5359375 -4.0625 2.0625 C-1.15934208 1.30476658 -1.15934208 1.30476658 0 0 Z " fill="#050605" transform="translate(879,386)"/>
<path d="M0 0 C0.33 0.66 0.66 1.32 1 2 C-0.98 4.64 -2.96 7.28 -5 10 C-5.66 9.34 -6.32 8.68 -7 8 C-6.34 8 -5.68 8 -5 8 C-4.731875 7.4225 -4.46375 6.845 -4.1875 6.25 C-2.98280141 3.9674132 -1.59201885 2.0262058 0 0 Z " fill="#080807" transform="translate(850,604)"/>
<path d="M0 0 C1.08667969 0.29197266 1.08667969 0.29197266 2.1953125 0.58984375 C2.74960937 0.74582031 3.30390625 0.90179687 3.875 1.0625 C3.875 1.7225 3.875 2.3825 3.875 3.0625 C-2.75 2.3125 -2.75 2.3125 -6.125 0.0625 C-3.57797384 -1.21101308 -2.6967055 -0.73941925 0 0 Z " fill="#20201F" transform="translate(515.125,547.9375)"/>
<path d="M0 0 C0.66 0.33 1.32 0.66 2 1 C1.67 1.33 1.34 1.66 1 2 C0.95615553 3.66608987 0.9603287 5.33380554 1 7 C1 7.99 1 8.98 1 10 C-1.28773145 8.18887927 -1.95209822 7.39279457 -2.3125 4.4375 C-2 2 -2 2 0 0 Z " fill="#060605" transform="translate(504,536)"/>
<path d="M0 0 C1.64826111 2.96687001 2.44271087 5.65626525 3 9 C1.35 7.35 -0.3 5.7 -2 4 C-1 1 -1 1 0 0 Z " fill="#171817" transform="translate(984,523)"/>
<path d="M0 0 C4.2742558 1.5830577 6.26531794 4.50568404 9 8 C6 8 6 8 3.375 5.6875 C1 3 1 3 0 0 Z " fill="#070706" transform="translate(909,561)"/>
<path d="M0 0 C0 0.66 0 1.32 0 2 C-5.2734375 5.22265625 -5.2734375 5.22265625 -7 6 C-7.66 5.67 -8.32 5.34 -9 5 C-6.45523312 2.20075644 -3.92372883 0 0 0 Z " fill="#040404" transform="translate(443,292)"/>
<path d="M0 0 C0.66 0 1.32 0 2 0 C2 0.99 2 1.98 2 3 C1.34 3 0.68 3 0 3 C0 6.3 0 9.6 0 13 C-0.33 13 -0.66 13 -1 13 C-1.02686553 11.02090602 -1.04633375 9.04171029 -1.0625 7.0625 C-1.07410156 5.96035156 -1.08570313 4.85820313 -1.09765625 3.72265625 C-1 1 -1 1 0 0 Z " fill="#191A19" transform="translate(938,574)"/>
<path d="M0 0 C0.66 0.33 1.32 0.66 2 1 C2 3.31 2 5.62 2 8 C1.01 7.67 0.02 7.34 -1 7 C-0.67 4.69 -0.34 2.38 0 0 Z " fill="#E0E0E0" transform="translate(1032,550)"/>
<path d="M0 0 C1.64826111 2.96687001 2.44271087 5.65626525 3 9 C2.01 8.67 1.02 8.34 0 8 C-1.125 2.25 -1.125 2.25 0 0 Z " fill="#171717" transform="translate(1050,542)"/>
<path d="M0 0 C0.66 0.66 1.32 1.32 2 2 C1.8125 5 1.8125 5 1 8 C0.01 8.66 -0.98 9.32 -2 10 C-1.34 6.7 -0.68 3.4 0 0 Z " fill="#222323" transform="translate(759,537)"/>
<path d="M0 0 C-1 2 -1 2 -4.0625 3.125 C-5.5165625 3.558125 -5.5165625 3.558125 -7 4 C-7 3.34 -7 2.68 -7 2 C-7.66 1.67 -8.32 1.34 -9 1 C-2.25 -1.125 -2.25 -1.125 0 0 Z " fill="#202020" transform="translate(563,532)"/>
<path d="M0 0 C2.31 1.98 4.62 3.96 7 6 C6.34 6.66 5.68 7.32 5 8 C4.67 7.01 4.34 6.02 4 5 C1.99983534 3.79117904 1.99983534 3.79117904 0 3 C0 2.01 0 1.02 0 0 Z " fill="#020202" transform="translate(600,384)"/>
<path d="M0 0 C0.66 0 1.32 0 2 0 C2 0.66 2 1.32 2 2 C2.928125 2.37125 2.928125 2.37125 3.875 2.75 C6.35068687 4.20628639 6.95125002 5.37812506 8 8 C6.84772177 7.23883449 5.7033614 6.46567307 4.5625 5.6875 C3.92441406 5.25824219 3.28632812 4.82898438 2.62890625 4.38671875 C1 3 1 3 0 0 Z " fill="#151515" transform="translate(1109,608)"/>
<path d="M0 0 C2.64 0 5.28 0 8 0 C7.67 1.98 7.34 3.96 7 6 C6.34 6 5.68 6 5 6 C5 4.68 5 3.36 5 2 C3.35 1.67 1.7 1.34 0 1 C0 0.67 0 0.34 0 0 Z " fill="#010101" transform="translate(857,428)"/>
<path d="M0 0 C0.33 0.99 0.66 1.98 1 3 C-1.97 2.67 -4.94 2.34 -8 2 C-4.77208445 -0.1519437 -3.71599191 -0.20086443 0 0 Z " fill="#232222" transform="translate(561,381)"/>
<path d="M0 0 C2.99324263 1.0975223 3.84610901 1.67682892 5.25 4.625 C5.4975 5.40875 5.745 6.1925 6 7 C3.00675737 5.9024777 2.15389099 5.32317108 0.75 2.375 C0.5025 1.59125 0.255 0.8075 0 0 Z " fill="#161615" transform="translate(874,364)"/>
</svg>
