<?xml version="1.0" encoding="UTF-8"?>
<svg xmlns="http://www.w3.org/2000/svg" width="611.0" height="338.0" viewBox="0 0 611.0 338.0" version="1.1">
  <path d="M 181,126 L 125,183 L 137,195 L 174,158 L 176,182 L 124,240 L 137,246 L 175,208 L 176,277 L 186,283 L 194,208 L 232,246 L 245,241 L 193,182 L 193,158 L 232,195 L 245,184 Z" fill="#000000" stroke="none"/>
  <path d="M 125,133 L 129,144 L 138,144 L 184,97 L 232,144 L 245,139 L 244,131 L 187,75 L 180,76 Z" fill="#000000" stroke="none"/>
  <path d="M 325,92 L 296,93 L 296,102 L 315,103 L 314,127 L 309,135 L 298,137 L 289,131 L 286,123 L 277,124 L 278,134 L 284,142 L 294,147 L 307,147 L 322,137 L 325,129 Z" fill="#000000" stroke="none"/>
  <path d="M 278,228 L 295,282 L 309,282 L 321,244 L 334,282 L 349,281 L 365,228 L 353,229 L 341,268 L 327,228 L 315,228 L 302,268 L 289,228 Z" fill="#000000" stroke="none"/>
  <path d="M 279,160 L 295,214 L 309,213 L 321,176 L 334,213 L 349,213 L 365,160 L 353,161 L 341,200 L 328,160 L 315,160 L 302,200 L 290,160 Z" fill="#000000" stroke="none"/>
  <path d="M 353,92 L 338,103 L 334,127 L 350,145 L 375,146 L 388,138 L 392,127 L 381,127 L 369,137 L 355,136 L 346,127 L 346,111 L 352,104 L 365,100 L 380,109 L 391,106 L 378,93 Z" fill="#000000" stroke="none"/>
  <path d="M 377,242 L 370,247 L 365,257 L 365,267 L 369,275 L 381,283 L 396,283 L 406,278 L 413,267 L 410,250 L 401,242 L 394,240 Z" fill="#000000" stroke="none"/>
  <path d="M 373,176 L 366,186 L 365,197 L 368,205 L 375,212 L 385,215 L 405,211 L 408,203 L 385,206 L 378,200 L 378,197 L 410,197 L 410,188 L 403,176 L 390,171 Z" fill="#000000" stroke="none"/>
  <path d="M 397,90 L 398,112 L 405,113 L 407,90 Z" fill="#000000" stroke="none"/>
  <path d="M 417,107 L 411,115 L 413,123 L 443,135 L 431,139 L 421,133 L 411,133 L 414,141 L 426,147 L 449,143 L 454,136 L 452,127 L 422,116 L 426,112 L 436,112 L 443,118 L 452,118 L 452,113 L 438,104 Z" fill="#000000" stroke="none"/>
  <path d="M 451,241 L 439,241 L 430,248 L 428,241 L 416,242 L 420,251 L 421,282 L 431,282 L 431,258 L 438,251 L 451,251 Z" fill="#000000" stroke="none"/>
  <path d="M 418,157 L 418,214 L 428,214 L 430,208 L 442,215 L 457,212 L 466,197 L 462,180 L 447,171 L 436,173 L 430,178 L 429,158 Z" fill="#000000" stroke="none"/>
  <path d="M 457,226 L 456,282 L 467,281 L 468,265 L 473,266 L 486,282 L 498,282 L 481,261 L 498,241 L 486,241 L 468,259 L 467,227 Z" fill="#000000" stroke="none"/>
  <path d="M 505,245 L 502,257 L 506,262 L 533,269 L 529,275 L 501,269 L 506,279 L 531,283 L 542,277 L 541,262 L 513,253 L 525,248 L 534,254 L 543,254 L 538,244 L 516,240 Z" fill="#000000" stroke="none"/>
</svg>
