<svg id="svg" version="1.1" xmlns="http://www.w3.org/2000/svg" xmlns:xlink="http://www.w3.org/1999/xlink" width="400" height="266.6666666666667" viewBox="0, 0, 400,266.6666666666667"><g id="svgg"><path id="path0" d="M0.000 133.333 L 0.000 266.667 200.000 266.667 L 400.000 266.667 400.000 133.333 L 400.000 0.000 200.000 0.000 L 0.000 0.000 0.000 133.333 M131.380 74.735 C 139.909 77.473,145.803 84.529,146.283 92.578 L 146.427 94.995 148.149 95.460 C 167.995 100.829,169.349 132.262,150.130 141.433 C 144.525 144.108,138.237 144.714,133.167 143.067 C 128.829 141.657,130.341 137.936,134.831 138.972 C 146.251 141.607,157.032 134.398,158.844 122.917 C 160.900 109.880,154.681 100.737,142.869 99.432 L 142.118 99.349 142.047 96.094 C 141.904 89.508,139.538 84.900,134.621 81.631 C 122.128 73.326,104.993 82.656,104.951 97.786 L 104.946 99.870 102.277 101.224 C 95.162 104.836,91.524 110.858,92.002 118.235 C 92.695 128.926,100.462 135.982,111.979 136.384 C 116.286 136.535,116.667 136.691,116.667 138.311 C 116.667 141.761,106.814 141.876,100.183 138.504 C 84.193 130.374,83.318 106.691,98.678 97.767 L 100.710 96.586 100.867 95.103 C 101.913 85.244,109.843 76.620,119.926 74.375 C 122.693 73.759,128.953 73.956,131.380 74.735 M214.960 90.502 C 218.857 91.517,222.179 94.124,223.804 97.444 C 225.326 100.552,225.364 100.473,222.005 101.186 C 218.192 101.996,218.376 102.021,217.835 100.605 C 216.403 96.855,211.655 94.949,207.870 96.605 C 201.178 99.532,201.239 113.615,207.955 116.128 C 212.384 117.785,217.033 115.815,218.246 111.767 C 218.484 110.971,218.688 110.701,218.988 110.785 C 219.215 110.848,220.584 110.979,222.031 111.074 C 225.820 111.325,225.943 111.587,224.044 115.382 C 220.673 122.120,211.423 124.743,203.824 121.117 C 194.941 116.877,193.019 101.763,200.422 94.360 C 203.915 90.867,210.080 89.231,214.960 90.502 M127.991 106.031 C 128.098 114.647,128.284 122.044,128.406 122.468 C 128.734 123.611,127.897 127.344,127.312 127.344 C 127.007 127.344,127.022 133.294,127.369 149.682 C 127.682 164.491,127.687 164.392,126.572 164.969 C 124.011 166.293,122.657 164.929,122.654 161.023 C 122.651 157.208,122.135 130.642,122.062 130.569 C 122.031 130.537,121.364 130.678,120.581 130.881 C 113.203 132.794,106.801 128.060,106.775 120.671 C 106.770 119.389,107.089 119.271,110.542 119.271 L 112.685 119.271 112.834 121.232 C 112.923 122.421,113.171 123.522,113.463 124.031 C 114.848 126.445,119.719 126.771,121.745 124.585 L 122.396 123.882 122.362 116.433 C 122.344 112.336,122.256 104.858,122.167 99.815 L 122.005 90.645 123.698 90.556 C 124.629 90.507,125.932 90.444,126.594 90.416 L 127.797 90.365 127.991 106.031 M233.073 91.106 C 236.726 93.727,232.805 103.368,228.080 103.384 C 227.520 103.386,226.832 101.516,227.331 101.350 C 229.193 100.729,231.317 96.875,229.798 96.875 C 228.351 96.875,227.020 94.555,227.460 92.801 C 227.986 90.704,231.172 89.743,233.073 91.106 M192.188 101.787 C 192.188 113.209,192.104 114.437,191.155 116.974 C 188.189 124.900,174.987 124.781,171.358 116.797 C 170.666 115.274,169.935 112.791,170.122 112.603 C 170.211 112.514,175.868 111.725,176.450 111.721 C 176.603 111.720,176.930 112.360,177.177 113.144 C 178.215 116.436,180.706 117.722,183.344 116.327 C 185.690 115.086,185.677 115.168,185.677 102.042 L 185.677 90.625 188.932 90.625 L 192.188 90.625 192.188 101.787 M247.266 98.841 C 249.901 99.563,251.920 101.337,252.734 103.646 C 253.252 105.114,253.212 105.138,250.073 105.256 L 247.412 105.356 247.099 104.600 C 246.062 102.096,241.239 102.340,241.457 104.887 C 241.568 106.178,242.280 106.610,246.094 107.701 C 252.714 109.594,254.905 112.317,253.552 116.972 C 251.343 124.568,236.769 124.730,234.528 117.184 C 233.854 114.912,233.885 114.844,235.612 114.842 C 236.436 114.841,237.900 114.765,238.867 114.674 L 240.625 114.508 240.625 115.210 C 240.625 118.095,246.593 119.308,247.282 116.563 C 247.799 114.505,247.125 113.953,242.469 112.626 C 237.605 111.239,236.003 110.142,235.279 107.705 C 233.393 101.357,239.629 96.746,247.266 98.841 M143.748 110.435 C 145.824 110.771,147.413 111.453,148.661 112.542 C 150.500 114.146,150.501 114.101,148.544 116.236 L 146.795 118.144 145.598 116.911 C 140.799 111.964,134.646 117.592,136.600 125.141 C 137.796 129.764,143.298 131.294,146.223 127.818 L 146.886 127.030 148.768 128.797 C 151.095 130.981,151.023 130.701,149.598 132.014 C 144.309 136.890,134.664 135.126,131.400 128.685 C 127.504 120.996,131.670 111.583,139.474 110.445 C 141.645 110.128,141.856 110.127,143.748 110.435 M230.674 139.453 C 230.633 142.390,230.641 144.792,230.692 144.792 C 230.743 144.792,231.015 144.499,231.297 144.140 C 232.805 142.222,236.314 141.405,239.086 142.325 C 246.365 144.743,246.808 158.064,239.719 161.365 C 237.025 162.620,233.391 162.117,231.445 160.221 L 230.469 159.269 230.469 160.494 L 230.469 161.719 227.999 161.719 L 225.530 161.719 225.460 148.025 C 225.422 140.494,225.439 134.283,225.499 134.223 C 225.559 134.163,226.765 134.115,228.179 134.115 L 230.750 134.115 230.674 139.453 M328.776 141.862 C 328.776 146.051,328.835 149.470,328.906 149.459 C 328.978 149.448,330.494 147.808,332.275 145.813 L 335.513 142.188 338.720 142.188 C 340.484 142.188,341.927 142.252,341.927 142.331 C 341.927 142.410,340.374 144.064,338.477 146.008 C 336.579 147.951,335.054 149.639,335.087 149.759 C 335.121 149.879,336.674 152.487,338.538 155.553 C 340.402 158.620,341.927 161.262,341.927 161.424 C 341.927 161.627,340.951 161.719,338.790 161.719 L 335.653 161.719 335.209 160.926 C 334.965 160.490,333.908 158.666,332.860 156.873 L 330.954 153.613 329.865 154.852 L 328.776 156.091 328.776 158.840 L 328.776 161.589 326.124 161.589 L 323.473 161.589 323.422 148.047 C 323.394 140.599,323.386 134.413,323.404 134.301 C 323.423 134.188,324.639 134.130,326.107 134.171 L 328.776 134.245 328.776 141.862 M173.698 134.725 C 173.698 136.040,178.679 153.734,178.841 152.995 C 178.979 152.366,182.946 137.675,183.499 135.742 L 183.891 134.375 186.458 134.375 L 189.026 134.375 189.414 135.742 C 189.628 136.494,190.763 140.566,191.936 144.792 C 193.109 149.017,194.148 152.619,194.244 152.797 C 194.340 152.974,194.795 151.626,195.254 149.802 C 195.714 147.977,196.775 143.789,197.611 140.495 L 199.133 134.505 201.910 134.431 C 203.438 134.391,204.688 134.430,204.688 134.518 C 204.688 134.671,199.535 153.761,198.032 159.180 L 197.327 161.719 194.379 161.719 L 191.431 161.719 191.197 160.872 C 189.441 154.526,186.319 143.785,186.275 143.939 C 186.244 144.050,185.270 147.480,184.112 151.563 C 182.954 155.645,181.832 159.603,181.618 160.360 L 181.231 161.736 178.337 161.662 L 175.444 161.589 175.115 160.417 C 174.935 159.772,173.770 155.612,172.528 151.172 C 171.286 146.732,169.825 141.517,169.283 139.583 C 168.740 137.650,168.213 135.687,168.112 135.221 L 167.927 134.375 170.813 134.375 C 173.054 134.375,173.698 134.453,173.698 134.725 M257.365 139.779 C 258.168 142.751,259.318 147.030,259.921 149.288 C 260.523 151.546,261.041 153.362,261.070 153.324 C 261.100 153.286,262.272 149.003,263.675 143.807 L 266.226 134.358 268.981 134.432 L 271.736 134.505 274.330 143.823 C 275.756 148.948,276.999 152.991,277.090 152.807 C 277.182 152.624,278.302 148.402,279.579 143.426 L 281.901 134.378 284.728 134.376 C 287.265 134.375,287.539 134.420,287.389 134.811 C 287.297 135.050,286.216 138.947,284.988 143.470 C 283.760 147.992,282.142 153.919,281.393 156.641 L 280.031 161.589 277.084 161.589 L 274.136 161.589 271.577 152.629 C 270.169 147.702,268.978 143.631,268.930 143.583 C 268.861 143.514,267.005 150.038,264.011 160.872 L 263.778 161.719 260.847 161.719 L 257.917 161.719 257.062 158.659 C 256.592 156.976,254.869 150.877,253.234 145.106 C 251.598 139.335,250.260 134.560,250.260 134.494 C 250.260 134.429,251.530 134.375,253.083 134.375 L 255.905 134.375 257.365 139.779 M217.082 142.479 C 220.622 143.804,222.881 147.938,222.275 151.983 L 222.104 153.125 215.710 153.125 L 209.317 153.125 209.499 154.093 C 210.218 157.928,215.387 159.564,217.139 156.510 C 217.469 155.937,217.717 155.789,218.223 155.868 C 218.585 155.924,219.554 156.042,220.378 156.129 C 222.048 156.306,222.156 156.491,221.451 157.975 C 219.498 162.091,211.806 163.419,207.766 160.337 C 198.759 153.467,206.547 138.538,217.082 142.479 M300.827 142.633 C 307.970 145.857,308.406 157.540,301.509 160.914 C 293.420 164.872,285.225 158.550,286.967 149.697 C 288.177 143.545,295.066 140.034,300.827 142.633 M320.161 142.085 C 320.491 142.212,320.573 142.676,320.573 144.429 L 320.573 146.615 319.384 146.615 C 315.753 146.615,314.844 148.579,314.844 156.427 L 314.844 161.719 312.109 161.719 L 309.375 161.719 309.375 151.943 L 309.375 142.166 311.512 142.242 L 313.650 142.318 314.091 143.750 C 314.334 144.538,314.544 145.040,314.558 144.866 C 314.693 143.193,318.336 141.385,320.161 142.085 M353.884 142.335 C 355.598 142.844,357.367 144.420,357.957 145.964 C 358.547 147.510,358.375 147.656,355.964 147.656 L 353.885 147.656 352.862 146.581 C 351.205 144.838,348.438 145.359,348.438 147.414 C 348.438 148.398,348.738 148.570,352.046 149.469 C 357.666 150.997,359.157 152.491,358.797 156.235 C 358.104 163.443,344.410 164.318,342.399 157.282 C 341.893 155.508,341.817 155.568,344.815 155.369 L 347.312 155.204 347.624 156.246 C 348.396 158.822,353.367 158.786,353.381 156.203 C 353.387 155.201,352.818 154.765,350.700 154.146 C 344.147 152.233,342.962 151.290,342.974 147.995 C 342.992 143.301,348.141 140.630,353.884 142.335 M211.804 146.322 C 210.654 146.861,210.044 147.588,209.755 148.763 L 209.579 149.479 213.791 149.479 L 218.004 149.479 217.823 148.893 C 216.989 146.190,214.424 145.094,211.804 146.322 M233.464 146.477 C 228.723 148.195,229.891 157.422,234.850 157.422 C 237.833 157.422,238.932 155.914,238.932 151.823 C 238.932 147.379,236.780 145.275,233.464 146.477 M294.909 146.444 C 291.490 148.002,291.232 155.285,294.531 157.086 C 297.962 158.959,300.914 156.522,300.908 151.823 C 300.902 147.326,298.231 144.931,294.909 146.444 " stroke="none" fill="#fbfbfb" fill-rule="evenodd"></path><path id="path1" d="M121.484 74.199 C 114.418 75.350,108.149 79.476,104.140 85.614 C 102.571 88.016,101.335 91.728,100.907 95.323 C 100.738 96.741,100.712 96.777,99.391 97.473 C 84.854 105.126,83.687 126.848,97.289 136.608 C 103.938 141.380,116.667 142.493,116.667 138.302 C 116.667 136.792,116.279 136.628,112.599 136.575 C 91.558 136.276,83.690 110.546,101.823 101.336 L 104.557 99.947 104.866 96.879 C 106.295 82.689,120.280 74.285,132.422 80.320 C 138.919 83.550,142.188 89.002,142.188 96.611 L 142.188 99.177 142.904 99.320 C 143.298 99.398,144.382 99.592,145.313 99.752 C 162.504 102.693,164.647 129.732,148.307 137.536 C 144.170 139.512,138.055 140.143,134.291 138.983 C 132.511 138.435,131.344 138.850,130.869 140.201 C 129.680 143.584,139.711 145.021,147.185 142.539 C 168.634 135.413,169.531 101.854,148.438 95.683 L 146.484 95.112 146.286 92.933 C 145.175 80.755,133.832 72.187,121.484 74.199 M209.505 90.267 C 209.219 90.324,208.340 90.496,207.552 90.650 C 192.498 93.593,191.928 118.463,206.831 122.100 C 214.225 123.905,221.317 121.005,224.070 115.051 C 225.796 111.319,225.927 111.475,220.703 111.053 L 218.620 110.885 218.151 112.219 C 216.067 118.153,207.096 118.501,204.167 112.761 C 201.806 108.133,202.740 100.296,205.971 97.631 C 209.906 94.386,216.605 96.125,217.991 100.753 C 218.266 101.671,218.412 101.834,218.861 101.726 C 219.158 101.654,220.653 101.336,222.183 101.017 L 224.965 100.439 224.342 98.784 C 222.192 93.072,215.314 89.123,209.505 90.267 M124.783 90.569 L 122.091 90.644 122.246 102.548 C 122.332 109.096,122.465 116.504,122.543 119.010 L 122.684 123.568 121.872 124.542 C 118.865 128.149,112.770 126.006,112.756 121.337 C 112.750 119.192,112.741 119.187,109.538 119.405 C 106.406 119.618,106.626 119.365,107.044 122.266 C 108.021 129.057,114.545 132.910,121.131 130.586 C 121.683 130.391,122.145 130.256,122.157 130.285 C 122.282 130.593,122.351 133.870,122.519 147.356 C 122.627 155.999,122.795 163.382,122.894 163.762 C 123.289 165.283,125.729 165.733,127.017 164.524 L 127.626 163.951 127.471 158.473 C 126.879 137.535,126.844 127.583,127.361 127.066 C 127.638 126.789,127.880 126.475,127.898 126.367 C 127.916 126.260,127.994 125.879,128.071 125.521 C 128.147 125.163,128.191 123.639,128.167 122.135 C 127.900 105.065,127.618 90.560,127.554 90.531 C 127.510 90.511,126.263 90.528,124.783 90.569 M185.932 90.885 C 185.929 90.957,185.931 95.724,185.937 101.478 C 185.949 112.610,185.842 113.847,184.738 115.294 C 182.422 118.330,178.615 117.288,177.147 113.216 C 176.758 112.138,176.606 111.979,175.965 111.979 C 175.302 111.979,170.260 112.530,170.128 112.616 C 169.947 112.736,170.994 115.958,171.611 117.181 C 174.903 123.702,186.204 124.687,190.108 118.792 C 191.966 115.987,192.027 115.498,192.129 102.474 L 192.220 90.755 189.079 90.755 C 187.351 90.755,185.935 90.814,185.932 90.885 M229.427 90.808 C 226.633 91.825,226.958 96.226,229.867 96.771 C 230.613 96.911,230.720 97.019,230.580 97.491 C 230.084 99.160,228.318 101.302,227.439 101.302 C 226.995 101.302,226.996 101.371,227.464 102.490 C 228.445 104.837,232.458 101.693,233.883 97.461 C 235.442 92.829,233.175 89.444,229.427 90.808 M240.531 98.814 C 236.870 99.871,235.286 101.926,235.286 105.621 C 235.286 109.627,236.655 110.930,242.549 112.537 C 246.983 113.746,248.340 114.892,247.382 116.619 C 246.001 119.109,241.560 118.611,240.625 115.862 L 240.234 114.714 238.802 114.775 C 238.014 114.809,236.642 114.906,235.753 114.990 L 234.135 115.143 234.281 115.970 C 235.714 124.136,251.173 125.170,253.374 117.246 C 254.712 112.427,252.658 109.649,246.484 107.931 C 241.789 106.625,240.920 105.967,241.504 104.161 C 242.163 102.121,245.912 102.234,247.040 104.328 C 247.681 105.517,252.875 105.634,252.859 104.458 C 252.806 100.530,245.760 97.305,240.531 98.814 M138.411 110.762 C 128.207 113.368,127.014 128.938,136.665 133.547 C 140.788 135.516,146.266 134.814,149.695 131.879 L 150.823 130.913 148.935 129.013 L 147.048 127.113 145.784 128.250 C 140.309 133.173,133.463 125.462,136.976 118.327 C 138.839 114.543,143.547 113.912,145.993 117.119 L 146.715 118.066 148.482 116.135 L 150.249 114.203 149.278 113.207 C 146.983 110.852,142.238 109.784,138.411 110.762 M225.583 147.873 L 225.651 161.501 228.060 161.545 L 230.469 161.589 230.469 160.392 L 230.469 159.195 231.515 160.191 C 235.784 164.251,242.724 161.473,244.402 155.031 C 246.872 145.549,237.593 137.844,231.362 144.204 L 230.403 145.182 230.501 139.765 L 230.599 134.348 228.057 134.296 L 225.516 134.245 225.583 147.873 M323.438 147.852 L 323.438 161.458 326.042 161.458 L 328.646 161.458 328.646 158.648 L 328.646 155.838 329.828 154.678 C 330.604 153.916,331.073 153.621,331.195 153.819 C 331.297 153.985,332.318 155.762,333.464 157.770 L 335.547 161.419 338.737 161.504 C 340.492 161.550,341.928 161.524,341.928 161.445 C 341.927 161.367,340.338 158.683,338.396 155.481 L 334.864 149.660 336.114 148.332 C 336.802 147.602,338.360 145.980,339.575 144.727 L 341.786 142.448 338.616 142.448 L 335.446 142.448 332.111 146.089 L 328.776 149.730 328.707 141.987 L 328.639 134.245 326.039 134.245 L 323.438 134.245 323.438 147.852 M168.075 134.860 C 168.143 135.095,169.079 138.451,170.156 142.318 C 171.234 146.185,172.881 152.083,173.818 155.424 C 174.754 158.765,175.521 161.548,175.521 161.609 C 175.521 161.669,176.786 161.719,178.333 161.719 L 181.146 161.719 183.582 153.060 C 186.312 143.360,186.334 143.296,186.610 144.393 C 186.715 144.814,187.867 148.855,189.169 153.373 L 191.536 161.589 194.401 161.661 L 197.266 161.733 200.876 148.390 C 202.861 141.051,204.539 134.908,204.603 134.740 C 204.688 134.520,203.964 134.424,202.010 134.395 L 199.299 134.355 197.708 140.550 C 196.834 143.957,195.745 148.246,195.288 150.081 C 194.832 151.916,194.378 153.322,194.279 153.206 C 194.180 153.090,193.020 149.069,191.701 144.271 C 188.631 133.100,189.315 134.375,186.390 134.375 L 183.967 134.375 182.308 140.430 C 181.395 143.760,180.206 148.184,179.666 150.260 C 179.126 152.337,178.623 153.861,178.549 153.646 C 178.474 153.431,177.340 149.154,176.028 144.141 C 174.716 139.128,173.599 134.875,173.544 134.690 C 173.471 134.440,172.745 134.364,170.699 134.394 C 168.291 134.429,167.968 134.487,168.075 134.860 M250.489 134.494 C 250.414 134.568,251.378 138.234,252.630 142.640 C 253.883 147.046,255.602 153.112,256.450 156.120 L 257.993 161.589 260.841 161.662 L 263.690 161.735 266.123 152.938 C 268.841 143.106,268.899 142.921,269.087 143.490 C 269.194 143.812,273.214 158.013,274.008 160.872 L 274.243 161.719 277.086 161.719 L 279.928 161.719 280.216 160.612 C 280.375 160.003,280.724 158.743,280.991 157.813 C 281.792 155.026,287.240 134.747,287.240 134.554 C 287.240 134.098,282.069 134.367,281.924 134.831 C 281.846 135.081,280.838 138.919,279.683 143.359 C 278.529 147.799,277.453 151.901,277.293 152.474 L 277.002 153.516 276.646 152.344 C 276.450 151.699,275.407 148.008,274.329 144.141 C 273.250 140.273,272.189 136.490,271.970 135.733 L 271.572 134.357 268.925 134.431 L 266.277 134.505 263.782 143.750 C 260.869 154.542,261.041 154.009,260.804 152.995 C 260.704 152.565,259.550 148.229,258.240 143.359 L 255.859 134.505 253.242 134.432 C 251.803 134.391,250.564 134.419,250.489 134.494 M211.519 142.187 C 202.741 144.046,201.138 157.113,209.203 161.059 C 213.886 163.350,220.745 161.131,221.748 157.001 C 221.914 156.321,221.912 156.321,219.856 156.141 L 217.798 155.962 216.742 157.017 C 214.251 159.508,209.375 157.352,209.375 153.759 L 209.375 153.125 215.755 153.125 L 222.135 153.125 222.135 150.959 C 222.135 144.624,217.622 140.895,211.519 142.187 M293.756 142.345 C 285.248 144.631,284.228 157.391,292.257 161.099 C 295.838 162.753,301.019 161.927,303.598 159.290 C 307.015 155.796,307.170 148.679,303.909 144.965 C 301.663 142.406,297.513 141.335,293.756 142.345 M317.626 142.192 C 316.545 142.517,315.243 143.597,314.779 144.556 L 314.371 145.398 314.088 144.379 C 313.932 143.818,313.804 143.154,313.804 142.904 C 313.802 142.505,313.523 142.448,311.589 142.448 L 309.375 142.448 309.375 151.910 C 309.375 157.114,309.423 161.420,309.482 161.480 C 309.541 161.540,310.764 161.552,312.199 161.507 L 314.809 161.424 314.891 155.517 C 314.997 147.983,315.664 146.615,319.236 146.615 L 320.573 146.615 320.573 144.431 C 320.573 141.855,320.057 141.462,317.626 142.192 M347.712 142.314 C 343.905 143.387,342.018 146.699,343.369 149.934 C 344.165 151.838,345.246 152.514,349.157 153.552 C 353.198 154.624,354.102 155.355,353.346 156.937 C 352.309 159.106,347.396 158.324,347.396 155.989 C 347.396 155.446,347.311 155.430,344.792 155.509 C 342.673 155.575,342.188 155.664,342.189 155.985 C 342.216 163.281,356.698 164.193,358.617 157.020 C 359.507 153.694,357.804 151.206,353.906 150.136 C 348.648 148.693,347.755 148.139,348.401 146.721 C 349.271 144.810,352.741 145.159,353.479 147.230 C 353.605 147.582,353.812 147.672,354.235 147.559 C 354.555 147.473,355.601 147.401,356.557 147.399 L 358.297 147.396 358.087 146.664 C 357.031 142.983,352.331 141.012,347.712 142.314 M216.553 146.626 C 219.234 149.131,218.670 149.740,213.672 149.740 C 211.309 149.740,209.375 149.698,209.375 149.648 C 209.375 146.653,214.343 144.562,216.553 146.626 M237.185 146.790 C 240.467 149.217,239.642 156.562,235.979 157.538 C 230.501 158.998,228.100 149.346,233.203 146.382 C 233.978 145.932,236.354 146.175,237.185 146.790 M298.985 146.680 C 302.531 149.030,301.663 156.496,297.721 157.540 C 293.819 158.573,290.890 153.902,292.488 149.193 C 293.445 146.371,296.649 145.132,298.985 146.680 " stroke="none" fill="#0d0f0e" fill-rule="evenodd"></path><path id="path2" d="M127.665 91.667 C 127.665 92.168,127.718 92.373,127.784 92.122 C 127.849 91.872,127.849 91.462,127.784 91.211 C 127.718 90.960,127.665 91.165,127.665 91.667 M122.219 105.208 C 122.219 106.139,122.266 106.520,122.324 106.055 C 122.382 105.589,122.382 104.827,122.324 104.362 C 122.266 103.896,122.219 104.277,122.219 105.208 M185.777 108.594 C 185.777 110.384,185.819 111.117,185.870 110.221 C 185.921 109.326,185.921 107.861,185.870 106.966 C 185.819 106.071,185.777 106.803,185.777 108.594 M127.939 107.682 C 127.941 108.398,127.992 108.660,128.051 108.265 C 128.111 107.869,128.110 107.283,128.048 106.963 C 127.986 106.642,127.937 106.966,127.939 107.682 M141.344 110.340 C 141.668 110.403,142.137 110.400,142.386 110.335 C 142.635 110.270,142.370 110.219,141.797 110.222 C 141.224 110.225,141.020 110.278,141.344 110.340 M122.216 135.807 C 122.218 136.667,122.266 136.987,122.324 136.519 C 122.382 136.051,122.381 135.348,122.321 134.956 C 122.262 134.565,122.215 134.948,122.216 135.807 M141.215 134.822 C 141.610 134.882,142.196 134.881,142.517 134.819 C 142.837 134.757,142.513 134.708,141.797 134.710 C 141.081 134.712,140.819 134.762,141.215 134.822 M323.248 136.198 C 323.248 136.842,323.299 137.106,323.361 136.784 C 323.423 136.462,323.423 135.934,323.361 135.612 C 323.299 135.290,323.248 135.553,323.248 136.198 M156.368 137.044 L 155.339 138.151 156.445 137.122 C 157.475 136.164,157.672 135.938,157.475 135.938 C 157.432 135.938,156.934 136.436,156.368 137.044 M328.746 140.625 C 328.746 142.415,328.788 143.148,328.839 142.253 C 328.889 141.357,328.889 139.893,328.839 138.997 C 328.788 138.102,328.746 138.835,328.746 140.625 M127.158 142.839 C 127.160 143.555,127.210 143.817,127.270 143.421 C 127.330 143.025,127.328 142.439,127.267 142.119 C 127.205 141.799,127.156 142.122,127.158 142.839 M310.352 142.378 C 310.960 142.433,311.956 142.433,312.565 142.378 C 313.174 142.323,312.676 142.278,311.458 142.278 C 310.241 142.278,309.743 142.323,310.352 142.378 M336.924 142.381 C 337.825 142.432,339.231 142.431,340.049 142.380 C 340.867 142.328,340.130 142.286,338.411 142.287 C 336.693 142.287,336.023 142.330,336.924 142.381 M339.830 144.466 L 338.932 145.443 339.909 144.545 C 340.818 143.710,341.005 143.490,340.806 143.490 C 340.763 143.490,340.323 143.929,339.830 144.466 M122.470 151.693 C 122.472 152.409,122.523 152.671,122.583 152.275 C 122.643 151.879,122.641 151.293,122.579 150.973 C 122.517 150.653,122.468 150.977,122.470 151.693 M239.128 151.693 C 239.131 152.266,239.184 152.469,239.247 152.145 C 239.309 151.821,239.307 151.353,239.241 151.104 C 239.176 150.855,239.125 151.120,239.128 151.693 M329.413 155.143 L 328.516 156.120 329.492 155.222 C 330.401 154.387,330.588 154.167,330.390 154.167 C 330.346 154.167,329.907 154.606,329.413 155.143 M127.415 156.250 C 127.415 156.895,127.465 157.158,127.528 156.836 C 127.590 156.514,127.590 155.986,127.528 155.664 C 127.465 155.342,127.415 155.605,127.415 156.250 M328.735 159.505 C 328.736 160.651,328.782 161.087,328.837 160.475 C 328.892 159.862,328.891 158.925,328.835 158.392 C 328.779 157.858,328.734 158.359,328.735 159.505 " stroke="none" fill="#9c9d9c" fill-rule="evenodd"></path><path id="path3" d="M185.771 103.125 C 185.771 104.486,185.815 105.042,185.868 104.362 C 185.922 103.682,185.922 102.568,185.868 101.888 C 185.815 101.208,185.771 101.764,185.771 103.125 M211.512 149.672 C 212.473 149.722,214.113 149.722,215.158 149.673 C 216.203 149.623,215.417 149.582,213.411 149.582 C 211.406 149.582,210.552 149.622,211.512 149.672 " stroke="none" fill="#7c7c7b" fill-rule="evenodd"></path><path id="path4" d="M188.094 90.817 C 188.778 90.871,189.833 90.870,190.438 90.815 C 191.042 90.761,190.482 90.717,189.193 90.717 C 187.904 90.718,187.409 90.763,188.094 90.817 M185.785 95.703 C 185.785 98.281,185.824 99.301,185.871 97.969 C 185.919 96.636,185.918 94.527,185.871 93.281 C 185.823 92.035,185.784 93.125,185.785 95.703 M127.665 94.531 C 127.665 95.033,127.718 95.238,127.784 94.987 C 127.849 94.736,127.849 94.326,127.784 94.076 C 127.718 93.825,127.665 94.030,127.665 94.531 M122.196 101.823 C 122.196 102.324,122.249 102.529,122.315 102.279 C 122.380 102.028,122.380 101.618,122.315 101.367 C 122.249 101.117,122.196 101.322,122.196 101.823 M252.214 104.948 L 251.432 105.147 252.133 105.178 C 252.518 105.194,252.906 105.091,252.995 104.948 C 253.083 104.805,253.120 104.701,253.075 104.718 C 253.031 104.735,252.643 104.839,252.214 104.948 M127.939 111.068 C 127.941 111.784,127.992 112.046,128.051 111.650 C 128.111 111.254,128.110 110.668,128.048 110.348 C 127.986 110.028,127.937 110.352,127.939 111.068 M159.202 118.229 C 159.202 119.303,159.248 119.743,159.304 119.206 C 159.360 118.669,159.360 117.790,159.304 117.253 C 159.248 116.715,159.202 117.155,159.202 118.229 M122.462 120.443 C 122.464 121.016,122.518 121.219,122.580 120.895 C 122.642 120.571,122.640 120.103,122.575 119.854 C 122.510 119.605,122.459 119.870,122.462 120.443 M126.889 130.599 C 126.891 131.172,126.945 131.376,127.007 131.052 C 127.069 130.728,127.067 130.259,127.002 130.010 C 126.937 129.761,126.886 130.026,126.889 130.599 M122.201 132.161 C 122.204 132.734,122.257 132.938,122.320 132.614 C 122.382 132.290,122.380 131.821,122.314 131.572 C 122.249 131.324,122.198 131.589,122.201 132.161 M227.018 134.305 C 227.627 134.360,228.623 134.360,229.232 134.305 C 229.840 134.250,229.342 134.206,228.125 134.206 C 226.908 134.206,226.410 134.250,227.018 134.305 M324.813 134.306 C 325.497 134.360,326.552 134.359,327.156 134.305 C 327.761 134.250,327.201 134.206,325.911 134.207 C 324.622 134.208,324.128 134.252,324.813 134.306 M111.654 136.647 C 112.119 136.704,112.881 136.704,113.346 136.647 C 113.812 136.589,113.431 136.542,112.500 136.542 C 111.569 136.542,111.188 136.589,111.654 136.647 M230.571 140.755 C 230.572 142.760,230.613 143.546,230.662 142.502 C 230.712 141.457,230.712 139.816,230.662 138.856 C 230.612 137.895,230.571 138.750,230.571 140.755 M138.480 143.934 C 138.804 143.996,139.272 143.994,139.521 143.929 C 139.770 143.864,139.505 143.813,138.932 143.816 C 138.359 143.819,138.156 143.872,138.480 143.934 M127.144 145.573 C 127.144 146.074,127.197 146.279,127.263 146.029 C 127.328 145.778,127.328 145.368,127.263 145.117 C 127.197 144.867,127.144 145.072,127.144 145.573 M337.874 146.419 L 337.109 147.266 337.956 146.501 C 338.745 145.788,338.922 145.573,338.721 145.573 C 338.676 145.573,338.295 145.954,337.874 146.419 M122.462 148.828 C 122.464 149.401,122.518 149.605,122.580 149.281 C 122.642 148.957,122.640 148.488,122.575 148.239 C 122.510 147.990,122.459 148.255,122.462 148.828 M127.409 158.724 C 127.412 159.297,127.466 159.501,127.528 159.177 C 127.590 158.853,127.588 158.384,127.523 158.135 C 127.457 157.886,127.407 158.151,127.409 158.724 M226.367 161.638 C 226.618 161.703,227.028 161.703,227.279 161.638 C 227.529 161.572,227.324 161.519,226.823 161.519 C 226.322 161.519,226.117 161.572,226.367 161.638 M311.142 161.651 C 311.898 161.703,313.070 161.703,313.746 161.649 C 314.421 161.596,313.802 161.553,312.370 161.553 C 310.938 161.554,310.385 161.598,311.142 161.651 M324.284 161.648 C 324.821 161.704,325.700 161.704,326.237 161.648 C 326.774 161.592,326.335 161.546,325.260 161.546 C 324.186 161.546,323.747 161.592,324.284 161.648 M337.054 161.651 C 337.883 161.703,339.172 161.702,339.918 161.650 C 340.665 161.598,339.987 161.555,338.411 161.556 C 336.836 161.556,336.225 161.599,337.054 161.651 " stroke="none" fill="#747c74" fill-rule="evenodd"></path></g></svg>