<?xml version="1.0" encoding="UTF-8" standalone="no"?>
<svg xmlns="http://www.w3.org/2000/svg" width="1536" height="1024" viewBox="0 0 1536 1024">
  <path d="M 1338,545 L 1337,546 L 1333,546 L 1332,547 L 1331,547 L 1330,548 L 1328,548 L 1326,550 L 1325,550 L 1320,555 L 1320,556 L 1319,557 L 1319,558 L 1318,559 L 1318,561 L 1317,562 L 1317,574 L 1318,575 L 1318,576 L 1319,577 L 1319,578 L 1325,584 L 1326,584 L 1327,585 L 1328,585 L 1329,586 L 1331,586 L 1332,587 L 1334,587 L 1335,588 L 1338,588 L 1339,589 L 1341,589 L 1342,590 L 1345,590 L 1346,591 L 1348,591 L 1349,592 L 1351,592 L 1352,593 L 1353,593 L 1354,594 L 1355,594 L 1356,595 L 1356,596 L 1357,597 L 1357,602 L 1356,603 L 1356,604 L 1355,605 L 1354,605 L 1353,606 L 1352,606 L 1351,607 L 1341,607 L 1340,606 L 1339,606 L 1338,605 L 1337,605 L 1335,603 L 1335,602 L 1334,601 L 1334,599 L 1333,598 L 1333,596 L 1327,596 L 1326,597 L 1314,597 L 1313,598 L 1314,599 L 1314,602 L 1315,603 L 1315,605 L 1316,606 L 1316,608 L 1318,610 L 1318,611 L 1322,615 L 1323,615 L 1325,617 L 1326,617 L 1327,618 L 1328,618 L 1329,619 L 1331,619 L 1332,620 L 1334,620 L 1335,621 L 1355,621 L 1356,620 L 1359,620 L 1360,619 L 1362,619 L 1363,618 L 1364,618 L 1365,617 L 1366,617 L 1368,615 L 1369,615 L 1373,611 L 1373,610 L 1374,609 L 1374,608 L 1375,607 L 1375,606 L 1376,605 L 1376,603 L 1377,602 L 1377,591 L 1376,590 L 1376,588 L 1375,587 L 1375,586 L 1369,580 L 1368,580 L 1367,579 L 1366,579 L 1365,578 L 1364,578 L 1363,577 L 1361,577 L 1360,576 L 1358,576 L 1357,575 L 1354,575 L 1353,574 L 1350,574 L 1349,573 L 1346,573 L 1345,572 L 1343,572 L 1342,571 L 1340,571 L 1337,568 L 1337,563 L 1338,562 L 1338,561 L 1340,559 L 1342,559 L 1343,558 L 1350,558 L 1351,559 L 1352,559 L 1357,564 L 1357,565 L 1358,566 L 1374,566 L 1375,565 L 1375,563 L 1374,562 L 1374,560 L 1373,559 L 1373,558 L 1372,557 L 1372,556 L 1365,549 L 1364,549 L 1363,548 L 1362,548 L 1361,547 L 1359,547 L 1358,546 L 1355,546 L 1354,545 Z M 1220,545 L 1219,546 L 1217,546 L 1216,547 L 1215,547 L 1209,553 L 1209,554 L 1208,555 L 1208,556 L 1207,557 L 1206,556 L 1206,554 L 1205,553 L 1205,550 L 1204,549 L 1204,547 L 1203,546 L 1188,546 L 1188,620 L 1208,620 L 1208,579 L 1209,578 L 1209,575 L 1210,574 L 1210,572 L 1211,571 L 1211,570 L 1217,564 L 1218,564 L 1219,563 L 1220,563 L 1221,562 L 1230,562 L 1230,546 L 1229,546 L 1228,545 Z M 1130,545 L 1129,546 L 1126,546 L 1125,547 L 1124,547 L 1123,548 L 1121,548 L 1120,549 L 1119,549 L 1117,551 L 1116,551 L 1107,560 L 1107,561 L 1106,562 L 1106,563 L 1105,564 L 1105,565 L 1104,566 L 1104,567 L 1103,568 L 1103,571 L 1102,572 L 1102,576 L 1101,577 L 1101,590 L 1102,591 L 1102,595 L 1103,596 L 1103,598 L 1104,599 L 1104,600 L 1105,601 L 1105,602 L 1106,603 L 1106,604 L 1107,605 L 1107,606 L 1109,608 L 1109,609 L 1114,614 L 1115,614 L 1117,616 L 1118,616 L 1119,617 L 1120,617 L 1121,618 L 1122,618 L 1123,619 L 1125,619 L 1126,620 L 1128,620 L 1129,621 L 1147,621 L 1148,620 L 1151,620 L 1152,619 L 1154,619 L 1155,618 L 1156,618 L 1157,617 L 1158,617 L 1159,616 L 1160,616 L 1162,614 L 1163,614 L 1167,610 L 1167,609 L 1170,606 L 1170,605 L 1171,604 L 1171,603 L 1172,602 L 1172,601 L 1173,600 L 1173,598 L 1174,597 L 1174,595 L 1175,594 L 1175,589 L 1176,588 L 1176,578 L 1175,577 L 1175,573 L 1174,572 L 1174,569 L 1173,568 L 1173,567 L 1172,566 L 1172,564 L 1171,563 L 1171,562 L 1169,560 L 1169,559 L 1161,551 L 1160,551 L 1158,549 L 1157,549 L 1156,548 L 1155,548 L 1154,547 L 1152,547 L 1151,546 L 1148,546 L 1147,545 Z M 813,545 L 812,546 L 809,546 L 808,547 L 806,547 L 805,548 L 804,548 L 803,549 L 802,549 L 801,550 L 800,550 L 799,551 L 798,551 L 789,560 L 789,561 L 788,562 L 788,563 L 787,564 L 787,565 L 786,566 L 786,568 L 785,569 L 785,571 L 784,572 L 784,576 L 783,577 L 783,591 L 784,592 L 784,595 L 785,596 L 785,598 L 786,599 L 786,601 L 787,602 L 787,603 L 788,604 L 788,605 L 790,607 L 790,608 L 797,615 L 798,615 L 800,617 L 801,617 L 802,618 L 803,618 L 804,619 L 806,619 L 807,620 L 810,620 L 811,621 L 817,621 L 818,622 L 819,621 L 829,621 L 830,620 L 832,620 L 833,619 L 835,619 L 836,618 L 837,618 L 838,617 L 839,617 L 841,615 L 842,615 L 848,609 L 848,608 L 850,606 L 850,604 L 851,603 L 851,600 L 847,600 L 846,599 L 837,599 L 836,598 L 835,598 L 835,599 L 834,600 L 834,601 L 830,605 L 829,605 L 828,606 L 827,606 L 826,607 L 818,607 L 817,606 L 815,606 L 814,605 L 813,605 L 811,603 L 810,603 L 806,599 L 806,598 L 805,597 L 805,596 L 804,595 L 804,593 L 803,592 L 803,588 L 804,587 L 852,587 L 852,584 L 853,583 L 853,575 L 852,574 L 852,569 L 851,568 L 851,565 L 850,564 L 850,563 L 849,562 L 849,561 L 848,560 L 848,559 L 847,558 L 847,557 L 840,550 L 839,550 L 838,549 L 837,549 L 836,548 L 835,548 L 834,547 L 832,547 L 831,546 L 829,546 L 828,545 Z M 961,516 L 961,518 L 962,519 L 962,521 L 963,522 L 963,525 L 964,526 L 964,528 L 965,529 L 965,532 L 966,533 L 966,535 L 967,536 L 967,539 L 968,540 L 968,542 L 969,543 L 969,546 L 970,547 L 970,549 L 971,550 L 971,553 L 972,554 L 972,556 L 973,557 L 973,560 L 974,561 L 974,564 L 975,565 L 975,567 L 976,568 L 976,570 L 977,571 L 977,574 L 978,575 L 978,578 L 979,579 L 979,581 L 980,582 L 980,585 L 981,586 L 981,588 L 982,589 L 982,592 L 983,593 L 983,595 L 984,596 L 984,599 L 985,600 L 985,603 L 986,604 L 986,606 L 987,607 L 987,609 L 988,610 L 988,613 L 989,614 L 989,617 L 990,618 L 990,620 L 1012,620 L 1012,619 L 1013,618 L 1013,615 L 1014,614 L 1014,612 L 1015,611 L 1015,608 L 1016,607 L 1016,604 L 1017,603 L 1017,601 L 1018,600 L 1018,597 L 1019,596 L 1019,594 L 1020,593 L 1020,590 L 1021,589 L 1021,586 L 1022,585 L 1022,583 L 1023,582 L 1023,579 L 1024,578 L 1024,576 L 1025,575 L 1025,572 L 1026,571 L 1026,568 L 1027,567 L 1027,565 L 1028,564 L 1028,561 L 1029,560 L 1029,558 L 1030,557 L 1030,554 L 1031,553 L 1031,551 L 1032,550 L 1033,551 L 1033,552 L 1034,553 L 1034,556 L 1035,557 L 1035,560 L 1036,561 L 1036,563 L 1037,564 L 1037,566 L 1038,567 L 1038,570 L 1039,571 L 1039,573 L 1040,574 L 1040,577 L 1041,578 L 1041,580 L 1042,581 L 1042,584 L 1043,585 L 1043,587 L 1044,588 L 1044,591 L 1045,592 L 1045,594 L 1046,595 L 1046,598 L 1047,599 L 1047,601 L 1048,602 L 1048,605 L 1049,606 L 1049,609 L 1050,610 L 1050,612 L 1051,613 L 1051,615 L 1052,616 L 1052,619 L 1053,620 L 1074,620 L 1075,619 L 1075,616 L 1076,615 L 1076,613 L 1077,612 L 1077,609 L 1078,608 L 1078,605 L 1079,604 L 1079,602 L 1080,601 L 1080,598 L 1081,597 L 1081,595 L 1082,594 L 1082,591 L 1083,590 L 1083,587 L 1084,586 L 1084,584 L 1085,583 L 1085,580 L 1086,579 L 1086,576 L 1087,575 L 1087,572 L 1088,571 L 1088,568 L 1089,567 L 1089,565 L 1090,564 L 1090,561 L 1091,560 L 1091,558 L 1092,557 L 1092,554 L 1093,553 L 1093,550 L 1094,549 L 1094,547 L 1095,546 L 1095,543 L 1096,542 L 1096,539 L 1097,538 L 1097,535 L 1098,534 L 1098,532 L 1099,531 L 1099,528 L 1100,527 L 1100,525 L 1101,524 L 1101,521 L 1102,520 L 1102,518 L 1103,517 L 1103,516 L 1082,516 L 1082,519 L 1081,520 L 1081,523 L 1080,524 L 1080,527 L 1079,528 L 1079,531 L 1078,532 L 1078,535 L 1077,536 L 1077,539 L 1076,540 L 1076,542 L 1075,543 L 1075,546 L 1074,547 L 1074,550 L 1073,551 L 1073,554 L 1072,555 L 1072,558 L 1071,559 L 1071,562 L 1070,563 L 1070,565 L 1069,566 L 1069,569 L 1068,570 L 1068,573 L 1067,574 L 1067,577 L 1066,578 L 1066,581 L 1065,582 L 1065,585 L 1064,586 L 1064,587 L 1063,588 L 1062,587 L 1062,585 L 1061,584 L 1061,581 L 1060,580 L 1060,578 L 1059,577 L 1059,574 L 1058,573 L 1058,570 L 1057,569 L 1057,567 L 1056,566 L 1056,563 L 1055,562 L 1055,560 L 1054,559 L 1054,556 L 1053,555 L 1053,553 L 1052,552 L 1052,549 L 1051,548 L 1051,545 L 1050,544 L 1050,542 L 1049,541 L 1049,538 L 1048,537 L 1048,535 L 1047,534 L 1047,531 L 1046,530 L 1046,527 L 1045,526 L 1045,524 L 1044,523 L 1044,520 L 1043,519 L 1043,517 L 1042,516 L 1022,516 L 1022,518 L 1021,519 L 1021,522 L 1020,523 L 1020,525 L 1019,526 L 1019,529 L 1018,530 L 1018,533 L 1017,534 L 1017,536 L 1016,537 L 1016,540 L 1015,541 L 1015,544 L 1014,545 L 1014,547 L 1013,548 L 1013,551 L 1012,552 L 1012,555 L 1011,556 L 1011,559 L 1010,560 L 1010,562 L 1009,563 L 1009,566 L 1008,567 L 1008,570 L 1007,571 L 1007,573 L 1006,574 L 1006,577 L 1005,578 L 1005,581 L 1004,582 L 1004,584 L 1003,585 L 1003,588 L 1002,589 L 1001,588 L 1001,586 L 1000,585 L 1000,582 L 999,581 L 999,579 L 998,578 L 998,575 L 997,574 L 997,571 L 996,570 L 996,567 L 995,566 L 995,564 L 994,563 L 994,560 L 993,559 L 993,556 L 992,555 L 992,552 L 991,551 L 991,549 L 990,548 L 990,545 L 989,544 L 989,541 L 988,540 L 988,538 L 987,537 L 987,534 L 986,533 L 986,530 L 985,529 L 985,526 L 984,525 L 984,523 L 983,522 L 983,519 L 982,518 L 982,516 Z M 645,516 L 645,518 L 646,519 L 646,522 L 647,523 L 647,526 L 648,527 L 648,530 L 649,531 L 649,533 L 650,534 L 650,536 L 651,537 L 651,540 L 652,541 L 652,544 L 653,545 L 653,547 L 654,548 L 654,551 L 655,552 L 655,554 L 656,555 L 656,558 L 657,559 L 657,562 L 658,563 L 658,565 L 659,566 L 659,569 L 660,570 L 660,572 L 661,573 L 661,576 L 662,577 L 662,579 L 663,580 L 663,583 L 664,584 L 664,586 L 665,587 L 665,590 L 666,591 L 666,593 L 667,594 L 667,597 L 668,598 L 668,601 L 669,602 L 669,604 L 670,605 L 670,608 L 671,609 L 671,612 L 672,613 L 672,615 L 673,616 L 673,619 L 674,620 L 695,620 L 695,619 L 696,618 L 696,616 L 697,615 L 697,612 L 698,611 L 698,608 L 699,607 L 699,605 L 700,604 L 700,601 L 701,600 L 701,598 L 702,597 L 702,594 L 703,593 L 703,591 L 704,590 L 704,587 L 705,586 L 705,583 L 706,582 L 706,580 L 707,579 L 707,577 L 708,576 L 708,573 L 709,572 L 709,570 L 710,569 L 710,566 L 711,565 L 711,563 L 712,562 L 712,559 L 713,558 L 713,556 L 714,555 L 714,552 L 715,551 L 716,552 L 716,554 L 717,555 L 717,558 L 718,559 L 718,562 L 719,563 L 719,565 L 720,566 L 720,569 L 721,570 L 721,572 L 722,573 L 722,575 L 723,576 L 723,579 L 724,580 L 724,583 L 725,584 L 725,586 L 726,587 L 726,590 L 727,591 L 727,593 L 728,594 L 728,597 L 729,598 L 729,600 L 730,601 L 730,603 L 731,604 L 731,607 L 732,608 L 732,611 L 733,612 L 733,614 L 734,615 L 734,618 L 735,619 L 735,620 L 757,620 L 757,618 L 758,617 L 758,615 L 759,614 L 759,611 L 760,610 L 760,607 L 761,606 L 761,604 L 762,603 L 762,600 L 763,599 L 763,597 L 764,596 L 764,593 L 765,592 L 765,589 L 766,588 L 766,585 L 767,584 L 767,582 L 768,581 L 768,578 L 769,577 L 769,574 L 770,573 L 770,571 L 771,570 L 771,567 L 772,566 L 772,563 L 773,562 L 773,560 L 774,559 L 774,556 L 775,555 L 775,552 L 776,551 L 776,549 L 777,548 L 777,545 L 778,544 L 778,541 L 779,540 L 779,537 L 780,536 L 780,534 L 781,533 L 781,530 L 782,529 L 782,526 L 783,525 L 783,523 L 784,522 L 784,519 L 785,518 L 785,516 L 765,516 L 764,517 L 764,520 L 763,521 L 763,524 L 762,525 L 762,529 L 761,530 L 761,532 L 760,533 L 760,536 L 759,537 L 759,540 L 758,541 L 758,544 L 757,545 L 757,548 L 756,549 L 756,552 L 755,553 L 755,556 L 754,557 L 754,560 L 753,561 L 753,563 L 752,564 L 752,567 L 751,568 L 751,571 L 750,572 L 750,575 L 749,576 L 749,579 L 748,580 L 748,583 L 747,584 L 747,587 L 746,588 L 745,587 L 745,586 L 744,585 L 744,583 L 743,582 L 743,579 L 742,578 L 742,576 L 741,575 L 741,572 L 740,571 L 740,568 L 739,567 L 739,565 L 738,564 L 738,561 L 737,560 L 737,558 L 736,557 L 736,554 L 735,553 L 735,551 L 734,550 L 734,547 L 733,546 L 733,543 L 732,542 L 732,540 L 731,539 L 731,536 L 730,535 L 730,533 L 729,532 L 729,529 L 728,528 L 728,525 L 727,524 L 727,522 L 726,521 L 726,518 L 725,517 L 725,516 L 706,516 L 706,517 L 705,518 L 705,521 L 704,522 L 704,524 L 703,525 L 703,528 L 702,529 L 702,532 L 701,533 L 701,535 L 700,536 L 700,539 L 699,540 L 699,543 L 698,544 L 698,546 L 697,547 L 697,550 L 696,551 L 696,554 L 695,555 L 695,557 L 694,558 L 694,561 L 693,562 L 693,565 L 692,566 L 692,568 L 691,569 L 691,572 L 690,573 L 690,576 L 689,577 L 689,580 L 688,581 L 688,584 L 687,585 L 687,588 L 686,589 L 684,587 L 684,584 L 683,583 L 683,580 L 682,579 L 682,577 L 681,576 L 681,573 L 680,572 L 680,569 L 679,568 L 679,566 L 678,565 L 678,562 L 677,561 L 677,558 L 676,557 L 676,554 L 675,553 L 675,551 L 674,550 L 674,547 L 673,546 L 673,543 L 672,542 L 672,539 L 671,538 L 671,536 L 670,535 L 670,532 L 669,531 L 669,528 L 668,527 L 668,524 L 667,523 L 667,520 L 666,519 L 666,516 Z M 1242,515 L 1241,516 L 1242,517 L 1242,519 L 1241,520 L 1241,524 L 1242,525 L 1242,618 L 1241,619 L 1242,620 L 1261,620 L 1262,619 L 1262,605 L 1261,604 L 1261,599 L 1262,598 L 1262,597 L 1263,596 L 1264,596 L 1267,593 L 1267,592 L 1270,589 L 1272,591 L 1272,592 L 1274,594 L 1274,595 L 1275,596 L 1275,597 L 1277,599 L 1277,600 L 1278,601 L 1278,602 L 1279,603 L 1279,604 L 1281,606 L 1281,607 L 1282,608 L 1282,609 L 1284,611 L 1284,612 L 1285,613 L 1285,614 L 1286,615 L 1286,616 L 1288,618 L 1288,619 L 1289,620 L 1312,620 L 1312,618 L 1311,617 L 1311,616 L 1309,614 L 1309,613 L 1308,612 L 1308,611 L 1306,609 L 1306,608 L 1305,607 L 1305,606 L 1303,604 L 1303,603 L 1302,602 L 1302,601 L 1300,599 L 1300,598 L 1298,596 L 1298,595 L 1297,594 L 1297,593 L 1295,591 L 1295,590 L 1294,589 L 1294,588 L 1292,586 L 1292,585 L 1291,584 L 1291,583 L 1289,581 L 1289,580 L 1288,579 L 1288,578 L 1286,576 L 1286,575 L 1285,574 L 1308,551 L 1308,550 L 1312,546 L 1288,546 L 1284,550 L 1284,551 L 1273,562 L 1273,563 L 1264,572 L 1264,573 L 1263,574 L 1262,574 L 1261,573 L 1261,572 L 1262,571 L 1262,570 L 1261,569 L 1261,531 L 1262,530 L 1261,529 L 1261,518 L 1262,517 L 1262,516 L 1261,515 Z M 866,515 L 865,516 L 866,517 L 866,620 L 884,620 L 884,612 L 885,611 L 892,618 L 893,618 L 894,619 L 895,619 L 896,620 L 898,620 L 899,621 L 915,621 L 916,620 L 918,620 L 919,619 L 920,619 L 921,618 L 922,618 L 923,617 L 924,617 L 932,609 L 932,608 L 934,606 L 934,605 L 935,604 L 935,603 L 936,602 L 936,600 L 937,599 L 937,597 L 938,596 L 938,593 L 939,592 L 939,574 L 938,573 L 938,569 L 937,568 L 937,566 L 936,565 L 936,564 L 935,563 L 935,562 L 934,561 L 934,560 L 932,558 L 932,557 L 924,549 L 923,549 L 922,548 L 921,548 L 920,547 L 918,547 L 917,546 L 915,546 L 914,545 L 902,545 L 901,546 L 898,546 L 897,547 L 896,547 L 895,548 L 894,548 L 892,550 L 891,550 L 887,554 L 887,555 L 886,556 L 885,556 L 884,555 L 885,554 L 885,515 Z M 541,423 L 540,424 L 533,424 L 532,425 L 529,425 L 528,426 L 526,426 L 525,427 L 524,427 L 523,428 L 522,428 L 521,429 L 520,429 L 519,430 L 518,430 L 514,434 L 513,434 L 510,437 L 510,438 L 507,441 L 507,442 L 505,444 L 505,445 L 504,446 L 504,447 L 503,448 L 503,450 L 502,451 L 502,452 L 501,453 L 501,456 L 500,457 L 500,462 L 499,463 L 499,476 L 500,477 L 500,482 L 501,483 L 501,486 L 502,487 L 502,489 L 503,490 L 503,491 L 504,492 L 504,493 L 505,494 L 505,495 L 506,496 L 506,497 L 508,499 L 508,500 L 516,508 L 517,508 L 519,510 L 520,510 L 521,511 L 522,511 L 523,512 L 524,512 L 525,513 L 526,513 L 527,514 L 529,514 L 530,515 L 533,515 L 534,516 L 540,516 L 541,517 L 548,517 L 549,516 L 555,516 L 556,515 L 559,515 L 560,514 L 562,514 L 563,513 L 564,513 L 565,512 L 566,512 L 567,511 L 568,511 L 570,509 L 571,509 L 578,502 L 578,501 L 577,500 L 576,500 L 564,488 L 563,488 L 563,489 L 558,494 L 557,494 L 555,496 L 554,496 L 553,497 L 551,497 L 550,498 L 540,498 L 539,497 L 537,497 L 536,496 L 535,496 L 534,495 L 533,495 L 527,489 L 527,488 L 525,486 L 525,484 L 524,483 L 524,481 L 523,480 L 523,477 L 522,476 L 522,462 L 523,461 L 523,458 L 524,457 L 524,455 L 525,454 L 525,453 L 527,451 L 527,450 L 533,444 L 534,444 L 535,443 L 536,443 L 537,442 L 540,442 L 541,441 L 547,441 L 548,442 L 551,442 L 552,443 L 553,443 L 554,444 L 555,444 L 562,451 L 562,452 L 563,453 L 566,450 L 566,449 L 576,439 L 576,438 L 573,435 L 573,434 L 572,434 L 567,429 L 566,429 L 565,428 L 564,428 L 563,427 L 562,427 L 561,426 L 559,426 L 558,425 L 555,425 L 554,424 L 548,424 L 547,423 Z M 935,377 L 934,378 L 926,378 L 925,379 L 922,379 L 921,380 L 919,380 L 918,381 L 917,381 L 916,382 L 915,382 L 913,384 L 912,384 L 907,389 L 907,390 L 905,392 L 905,393 L 904,394 L 904,396 L 903,397 L 903,400 L 902,401 L 902,409 L 903,410 L 903,413 L 904,414 L 904,416 L 905,417 L 905,418 L 912,425 L 913,425 L 914,426 L 915,426 L 916,427 L 917,427 L 918,428 L 920,428 L 921,429 L 923,429 L 924,430 L 927,430 L 928,431 L 930,431 L 931,432 L 934,432 L 935,433 L 937,433 L 938,434 L 941,434 L 942,435 L 943,435 L 944,436 L 945,436 L 946,437 L 947,437 L 950,440 L 950,447 L 949,448 L 949,449 L 947,451 L 946,451 L 945,452 L 944,452 L 943,453 L 931,453 L 930,452 L 929,452 L 928,451 L 927,451 L 925,449 L 925,448 L 924,447 L 924,446 L 923,445 L 923,440 L 915,440 L 914,441 L 899,441 L 899,445 L 900,446 L 900,449 L 901,450 L 901,452 L 903,454 L 903,455 L 904,456 L 904,457 L 911,464 L 912,464 L 914,466 L 915,466 L 916,467 L 918,467 L 919,468 L 921,468 L 922,469 L 925,469 L 926,470 L 935,470 L 936,471 L 937,470 L 947,470 L 948,469 L 951,469 L 952,468 L 954,468 L 955,467 L 956,467 L 957,466 L 958,466 L 959,465 L 960,465 L 961,464 L 962,464 L 969,457 L 969,456 L 971,454 L 971,453 L 972,452 L 972,450 L 973,449 L 973,445 L 974,444 L 974,437 L 973,436 L 973,433 L 972,432 L 972,430 L 971,429 L 971,428 L 964,421 L 963,421 L 961,419 L 960,419 L 959,418 L 958,418 L 957,417 L 955,417 L 954,416 L 952,416 L 951,415 L 948,415 L 947,414 L 945,414 L 944,413 L 941,413 L 940,412 L 938,412 L 937,411 L 934,411 L 933,410 L 932,410 L 931,409 L 930,409 L 926,405 L 926,399 L 930,395 L 931,395 L 932,394 L 941,394 L 942,395 L 943,395 L 944,396 L 945,396 L 948,399 L 948,400 L 949,401 L 949,402 L 950,403 L 950,404 L 951,404 L 952,403 L 970,403 L 971,402 L 971,401 L 970,400 L 970,398 L 969,397 L 969,395 L 968,394 L 968,393 L 966,391 L 966,390 L 961,385 L 960,385 L 958,383 L 957,383 L 956,382 L 955,382 L 954,381 L 953,381 L 952,380 L 950,380 L 949,379 L 946,379 L 945,378 L 937,378 L 936,377 Z M 713,348 L 713,435 L 712,436 L 712,438 L 711,439 L 711,440 L 709,442 L 709,443 L 707,445 L 706,445 L 704,447 L 703,447 L 702,448 L 700,448 L 699,449 L 693,449 L 692,448 L 690,448 L 689,447 L 688,447 L 682,441 L 682,440 L 681,439 L 681,438 L 680,437 L 680,435 L 679,434 L 679,432 L 678,431 L 678,429 L 673,429 L 672,430 L 666,430 L 665,431 L 657,431 L 656,432 L 653,432 L 653,434 L 654,435 L 654,438 L 655,439 L 655,442 L 656,443 L 656,444 L 657,445 L 657,447 L 658,448 L 658,449 L 659,450 L 659,451 L 660,452 L 660,453 L 663,456 L 663,457 L 668,462 L 669,462 L 671,464 L 672,464 L 673,465 L 674,465 L 675,466 L 676,466 L 677,467 L 679,467 L 680,468 L 681,468 L 682,469 L 685,469 L 686,470 L 692,470 L 693,471 L 701,471 L 702,470 L 708,470 L 709,469 L 712,469 L 713,468 L 714,468 L 715,467 L 716,467 L 717,466 L 718,466 L 719,465 L 720,465 L 722,463 L 723,463 L 729,457 L 729,456 L 731,454 L 731,453 L 732,452 L 732,451 L 733,450 L 733,448 L 734,447 L 734,445 L 735,444 L 735,442 L 736,441 L 736,436 L 737,435 L 737,348 Z M 884,347 L 883,348 L 880,348 L 878,350 L 877,350 L 875,352 L 875,353 L 874,354 L 874,355 L 873,356 L 873,362 L 874,363 L 874,365 L 875,366 L 875,367 L 877,369 L 878,369 L 880,371 L 884,371 L 885,372 L 885,375 L 884,376 L 884,377 L 883,378 L 883,379 L 882,380 L 882,381 L 875,388 L 874,388 L 873,389 L 872,389 L 872,391 L 873,392 L 873,394 L 874,395 L 874,396 L 878,396 L 879,395 L 882,395 L 883,394 L 884,394 L 891,387 L 891,386 L 893,384 L 893,383 L 894,382 L 894,381 L 895,380 L 895,379 L 896,378 L 896,377 L 897,376 L 897,374 L 898,373 L 898,371 L 899,370 L 899,367 L 900,366 L 900,358 L 899,357 L 899,355 L 898,354 L 898,353 L 894,349 L 893,349 L 892,348 L 889,348 L 888,347 Z M 482,347 L 481,348 L 468,348 L 469,349 L 469,408 L 470,409 L 470,475 L 469,476 L 469,477 L 466,480 L 465,480 L 463,482 L 462,482 L 461,483 L 459,483 L 458,484 L 446,484 L 445,483 L 443,483 L 442,482 L 441,482 L 440,481 L 439,481 L 435,477 L 435,476 L 434,475 L 434,474 L 433,473 L 433,469 L 432,468 L 432,458 L 414,458 L 413,459 L 410,459 L 410,468 L 411,469 L 411,473 L 412,474 L 412,477 L 413,478 L 413,480 L 414,481 L 414,482 L 415,483 L 415,484 L 416,485 L 416,486 L 418,488 L 418,489 L 425,496 L 426,496 L 428,498 L 429,498 L 430,499 L 431,499 L 432,500 L 433,500 L 434,501 L 437,501 L 438,502 L 441,502 L 442,503 L 458,503 L 459,502 L 463,502 L 464,501 L 466,501 L 467,500 L 468,500 L 469,501 L 469,525 L 470,526 L 470,585 L 471,586 L 471,628 L 472,629 L 472,630 L 475,633 L 476,633 L 477,634 L 483,634 L 484,633 L 485,633 L 486,632 L 487,632 L 488,631 L 488,630 L 489,629 L 489,596 L 488,595 L 488,544 L 487,543 L 487,491 L 486,490 L 488,488 L 489,488 L 489,487 L 490,486 L 490,485 L 491,484 L 491,480 L 492,479 L 492,475 L 493,474 L 493,472 L 492,471 L 492,468 L 491,467 L 491,410 L 490,409 L 490,347 Z M 802,346 L 801,347 L 797,347 L 796,348 L 793,348 L 792,349 L 790,349 L 789,350 L 788,350 L 787,351 L 785,351 L 784,352 L 783,352 L 782,353 L 781,353 L 780,354 L 779,354 L 777,356 L 776,356 L 773,359 L 772,359 L 766,365 L 766,366 L 763,369 L 763,370 L 762,371 L 762,372 L 760,374 L 760,375 L 759,376 L 759,377 L 758,378 L 758,379 L 757,380 L 757,382 L 756,383 L 756,384 L 755,385 L 755,388 L 754,389 L 754,392 L 753,393 L 753,398 L 752,399 L 752,416 L 753,417 L 753,422 L 754,423 L 754,427 L 755,428 L 755,430 L 756,431 L 756,433 L 757,434 L 757,436 L 758,437 L 758,438 L 759,439 L 759,441 L 760,442 L 760,443 L 761,444 L 761,445 L 763,447 L 763,448 L 766,451 L 766,452 L 772,458 L 773,458 L 776,461 L 777,461 L 779,463 L 780,463 L 781,464 L 782,464 L 783,465 L 785,465 L 786,466 L 787,466 L 788,467 L 790,467 L 791,468 L 794,468 L 795,469 L 800,469 L 801,470 L 821,470 L 822,469 L 826,469 L 827,468 L 830,468 L 831,467 L 832,467 L 833,466 L 835,466 L 836,465 L 837,465 L 838,464 L 839,464 L 840,463 L 841,463 L 843,461 L 844,461 L 847,458 L 848,458 L 853,453 L 853,452 L 856,449 L 856,448 L 858,446 L 858,445 L 859,444 L 859,443 L 860,442 L 860,441 L 861,440 L 861,439 L 862,438 L 862,436 L 863,435 L 863,432 L 864,431 L 864,428 L 863,428 L 862,427 L 853,427 L 852,426 L 841,426 L 840,425 L 839,425 L 839,427 L 838,428 L 838,430 L 837,431 L 837,433 L 835,435 L 835,436 L 833,438 L 833,439 L 831,441 L 830,441 L 827,444 L 826,444 L 825,445 L 824,445 L 823,446 L 822,446 L 821,447 L 818,447 L 817,448 L 803,448 L 802,447 L 800,447 L 799,446 L 797,446 L 796,445 L 795,445 L 794,444 L 793,444 L 791,442 L 790,442 L 788,440 L 788,439 L 785,436 L 785,435 L 784,434 L 784,433 L 783,432 L 783,431 L 782,430 L 782,429 L 781,428 L 781,426 L 780,425 L 780,421 L 779,420 L 779,413 L 778,412 L 778,402 L 779,401 L 779,395 L 780,394 L 780,391 L 781,390 L 781,388 L 782,387 L 782,386 L 783,385 L 783,383 L 785,381 L 785,380 L 793,372 L 794,372 L 796,370 L 798,370 L 799,369 L 801,369 L 802,368 L 806,368 L 807,367 L 811,367 L 812,368 L 817,368 L 818,369 L 820,369 L 821,370 L 822,370 L 823,371 L 824,371 L 826,373 L 827,373 L 833,379 L 833,380 L 835,382 L 835,383 L 836,384 L 836,385 L 837,386 L 837,388 L 838,389 L 838,390 L 842,390 L 843,389 L 847,389 L 848,388 L 851,388 L 852,387 L 856,387 L 857,386 L 862,386 L 863,385 L 863,384 L 862,383 L 862,381 L 861,380 L 861,378 L 860,377 L 860,376 L 859,375 L 859,374 L 858,373 L 858,372 L 857,371 L 857,370 L 855,368 L 855,367 L 851,363 L 851,362 L 848,359 L 847,359 L 844,356 L 843,356 L 841,354 L 840,354 L 839,353 L 838,353 L 837,352 L 836,352 L 835,351 L 834,351 L 833,350 L 832,350 L 831,349 L 829,349 L 828,348 L 826,348 L 825,347 L 821,347 L 820,346 Z M 467,284 L 466,285 L 461,285 L 460,286 L 457,286 L 456,287 L 453,287 L 452,288 L 450,288 L 449,289 L 447,289 L 446,290 L 445,290 L 444,291 L 442,291 L 441,292 L 440,292 L 439,293 L 438,293 L 437,294 L 436,294 L 434,296 L 433,296 L 432,297 L 431,297 L 429,299 L 428,299 L 426,301 L 425,301 L 421,305 L 420,305 L 405,320 L 405,321 L 402,324 L 402,325 L 400,327 L 400,328 L 398,330 L 398,331 L 397,332 L 397,333 L 396,334 L 396,335 L 395,336 L 395,337 L 394,338 L 394,339 L 393,340 L 393,342 L 392,343 L 392,345 L 391,346 L 391,348 L 390,349 L 390,352 L 389,353 L 389,357 L 388,358 L 388,362 L 387,363 L 387,370 L 385,372 L 384,372 L 383,373 L 382,373 L 381,374 L 380,374 L 378,376 L 377,376 L 376,377 L 375,377 L 373,379 L 372,379 L 369,382 L 368,382 L 356,394 L 356,395 L 353,398 L 353,399 L 351,401 L 351,402 L 349,404 L 349,405 L 348,406 L 348,407 L 347,408 L 347,409 L 346,410 L 346,411 L 345,412 L 345,413 L 344,414 L 344,416 L 343,417 L 343,418 L 342,419 L 342,421 L 341,422 L 341,424 L 340,425 L 340,428 L 339,429 L 339,432 L 338,433 L 338,437 L 337,438 L 337,467 L 338,468 L 338,472 L 339,473 L 339,476 L 340,477 L 340,480 L 341,481 L 341,482 L 342,483 L 342,485 L 343,486 L 343,488 L 344,489 L 344,490 L 345,491 L 345,492 L 346,493 L 346,494 L 347,495 L 347,496 L 349,498 L 349,499 L 351,501 L 351,502 L 353,504 L 353,505 L 356,508 L 356,509 L 366,519 L 367,519 L 371,523 L 372,523 L 374,525 L 375,525 L 377,527 L 378,527 L 380,529 L 381,529 L 382,530 L 383,530 L 384,531 L 385,531 L 386,532 L 387,532 L 388,533 L 390,533 L 391,534 L 392,534 L 393,535 L 395,535 L 396,536 L 397,536 L 398,537 L 401,537 L 402,538 L 405,538 L 406,539 L 411,539 L 412,540 L 433,540 L 434,539 L 439,539 L 440,538 L 443,538 L 445,536 L 446,536 L 446,535 L 447,534 L 447,527 L 444,524 L 419,524 L 418,523 L 414,523 L 413,522 L 410,522 L 409,521 L 406,521 L 405,520 L 403,520 L 402,519 L 400,519 L 399,518 L 398,518 L 397,517 L 395,517 L 394,516 L 393,516 L 392,515 L 391,515 L 389,513 L 388,513 L 387,512 L 386,512 L 384,510 L 383,510 L 379,506 L 378,506 L 368,496 L 368,495 L 365,492 L 365,491 L 363,489 L 363,488 L 361,486 L 361,485 L 360,484 L 360,483 L 359,482 L 359,481 L 358,480 L 358,478 L 357,477 L 357,476 L 356,475 L 356,473 L 355,472 L 355,470 L 354,469 L 354,465 L 353,464 L 353,458 L 352,457 L 352,442 L 353,441 L 353,436 L 354,435 L 354,432 L 355,431 L 355,428 L 356,427 L 356,426 L 357,425 L 357,423 L 358,422 L 358,421 L 359,420 L 359,418 L 360,417 L 360,416 L 362,414 L 362,413 L 364,411 L 364,410 L 367,407 L 367,406 L 375,398 L 376,398 L 379,395 L 380,395 L 382,393 L 383,393 L 385,391 L 386,391 L 387,390 L 388,390 L 389,389 L 390,389 L 391,388 L 392,388 L 393,387 L 394,387 L 395,386 L 396,386 L 397,385 L 398,385 L 399,384 L 400,384 L 401,383 L 402,383 L 402,366 L 403,365 L 403,360 L 404,359 L 404,356 L 405,355 L 405,353 L 406,352 L 406,350 L 407,349 L 407,347 L 408,346 L 408,345 L 409,344 L 409,343 L 410,342 L 410,341 L 412,339 L 412,338 L 413,337 L 413,336 L 416,333 L 416,332 L 419,329 L 419,328 L 431,316 L 432,316 L 435,313 L 436,313 L 438,311 L 439,311 L 440,310 L 441,310 L 443,308 L 444,308 L 445,307 L 447,307 L 448,306 L 449,306 L 450,305 L 452,305 L 453,304 L 455,304 L 456,303 L 459,303 L 460,302 L 463,302 L 464,301 L 470,301 L 471,300 L 482,300 L 483,301 L 489,301 L 490,302 L 494,302 L 495,303 L 497,303 L 498,304 L 501,304 L 502,305 L 503,305 L 504,306 L 505,306 L 506,307 L 508,307 L 509,308 L 510,308 L 512,310 L 513,310 L 514,311 L 515,311 L 517,313 L 518,313 L 520,315 L 521,315 L 532,326 L 532,327 L 535,330 L 535,331 L 536,332 L 536,333 L 538,335 L 538,336 L 539,337 L 539,338 L 540,339 L 540,340 L 541,341 L 541,343 L 542,344 L 542,346 L 543,347 L 543,349 L 544,350 L 544,354 L 545,355 L 545,362 L 546,363 L 546,377 L 545,378 L 545,380 L 546,381 L 552,381 L 553,382 L 558,382 L 559,383 L 562,383 L 563,384 L 566,384 L 567,385 L 569,385 L 570,386 L 571,386 L 572,387 L 573,387 L 574,388 L 576,388 L 577,389 L 578,389 L 580,391 L 581,391 L 582,392 L 583,392 L 586,395 L 587,395 L 597,405 L 597,406 L 600,409 L 600,410 L 601,411 L 601,412 L 603,414 L 603,416 L 604,417 L 604,418 L 605,419 L 605,420 L 606,421 L 606,423 L 607,424 L 607,425 L 608,426 L 608,429 L 609,430 L 609,433 L 610,434 L 610,439 L 611,440 L 611,467 L 610,468 L 610,474 L 609,475 L 609,479 L 608,480 L 608,483 L 607,484 L 607,486 L 606,487 L 606,488 L 605,489 L 605,491 L 604,492 L 604,493 L 603,494 L 603,495 L 602,496 L 602,497 L 601,498 L 601,499 L 600,500 L 600,501 L 598,503 L 598,504 L 595,507 L 595,508 L 585,518 L 584,518 L 581,521 L 580,521 L 577,524 L 576,524 L 575,525 L 574,525 L 573,526 L 572,526 L 571,527 L 570,527 L 568,529 L 566,529 L 565,530 L 564,530 L 563,531 L 561,531 L 560,532 L 558,532 L 557,533 L 554,533 L 553,534 L 549,534 L 548,535 L 541,535 L 540,536 L 530,536 L 529,535 L 521,535 L 520,534 L 517,534 L 516,533 L 513,533 L 512,532 L 508,532 L 507,533 L 506,533 L 505,534 L 504,534 L 504,535 L 502,537 L 502,542 L 503,543 L 503,544 L 506,547 L 508,547 L 509,548 L 511,548 L 512,549 L 514,549 L 515,550 L 519,550 L 520,551 L 527,551 L 528,552 L 544,552 L 545,551 L 551,551 L 552,550 L 556,550 L 557,549 L 559,549 L 560,548 L 563,548 L 564,547 L 566,547 L 567,546 L 568,546 L 569,545 L 571,545 L 572,544 L 573,544 L 574,543 L 575,543 L 576,542 L 577,542 L 578,541 L 579,541 L 580,540 L 581,540 L 582,539 L 583,539 L 584,538 L 585,538 L 587,536 L 588,536 L 591,533 L 592,533 L 596,529 L 597,529 L 603,523 L 603,522 L 608,517 L 608,516 L 611,513 L 611,512 L 612,511 L 612,510 L 614,508 L 614,507 L 615,506 L 615,505 L 616,504 L 616,503 L 617,502 L 617,501 L 618,500 L 618,499 L 619,498 L 619,497 L 620,496 L 620,495 L 621,494 L 621,492 L 622,491 L 622,489 L 623,488 L 623,486 L 624,485 L 624,483 L 625,482 L 625,479 L 626,478 L 626,474 L 627,473 L 627,466 L 628,465 L 628,443 L 627,442 L 627,435 L 626,434 L 626,430 L 625,429 L 625,426 L 624,425 L 624,422 L 623,421 L 623,419 L 622,418 L 622,416 L 621,415 L 621,414 L 620,413 L 620,411 L 619,410 L 619,409 L 618,408 L 618,407 L 617,406 L 617,405 L 615,403 L 615,402 L 614,401 L 614,400 L 612,398 L 612,397 L 609,394 L 609,393 L 596,380 L 595,380 L 592,377 L 591,377 L 589,375 L 588,375 L 587,374 L 586,374 L 585,373 L 584,373 L 583,372 L 582,372 L 581,371 L 580,371 L 579,370 L 578,370 L 577,369 L 575,369 L 574,368 L 572,368 L 571,367 L 569,367 L 568,366 L 565,366 L 564,365 L 562,365 L 561,364 L 561,351 L 560,350 L 560,345 L 559,344 L 559,341 L 558,340 L 558,338 L 557,337 L 557,335 L 556,334 L 556,333 L 555,332 L 555,330 L 554,329 L 554,328 L 553,327 L 553,326 L 552,325 L 552,324 L 550,322 L 550,321 L 548,319 L 548,318 L 546,316 L 546,315 L 533,302 L 532,302 L 529,299 L 528,299 L 526,297 L 525,297 L 523,295 L 522,295 L 521,294 L 520,294 L 519,293 L 518,293 L 517,292 L 516,292 L 515,291 L 514,291 L 513,290 L 512,290 L 511,289 L 509,289 L 508,288 L 506,288 L 505,287 L 502,287 L 501,286 L 499,286 L 498,285 L 493,285 L 492,284 Z " fill="black" />
</svg>
